SplineFontDB: 3.0
FontName: Comme-ExtraBold
FullName: Comme ExtraBold
FamilyName: Comme
Weight: ExtraBold
Copyright: Digitized data Copyright (c) 2011-2014, vernon adams.
Version: 2
ItalicAngle: 0
UnderlinePosition: 0
UnderlineWidth: 0
Ascent: 1638
Descent: 410
UFOAscent: 1560
UFODescent: -556
LayerCount: 2
Layer: 0 0 "Back"  1
Layer: 1 0 "Fore"  0
FSType: 0
OS2Version: 0
OS2_WeightWidthSlopeOnly: 0
OS2_UseTypoMetrics: 1
CreationTime: 1393614812
ModificationTime: 1393616404
PfmFamily: 17
TTFWeight: 800
TTFWidth: 5
LineGap: 0
VLineGap: 0
OS2TypoAscent: 2390
OS2TypoAOffset: 0
OS2TypoDescent: -512
OS2TypoDOffset: 0
OS2TypoLinegap: 0
OS2WinAscent: 2390
OS2WinAOffset: 0
OS2WinDescent: 512
OS2WinDOffset: 0
HheadAscent: 2390
HheadAOffset: 0
HheadDescent: -512
HheadDOffset: 0
OS2Vendor: 'NeWT'
Lookup: 4 0 1 "ligaStandardLigatureslookup0"  {"ligaStandardLigatureslookup0 subtable"  } ['liga' ('latn' <'dflt' > 'grek' <'dflt' > 'DFLT' <'dflt' > ) ]
Lookup: 4 0 0 "fracDiagonalFractionslookup11"  {"fracDiagonalFractionslookup11 subtable"  } ['frac' ('latn' <'dflt' 'CAT ' 'MOL ' 'ROM ' 'TRK ' > 'grek' <'dflt' > 'DFLT' <'dflt' > ) ]
Lookup: 6 0 0 "ordnOrdinalslookup12"  {"ordnOrdinalslookup12 contextual 0"  "ordnOrdinalslookup12 contextual 1"  } ['ordn' ('latn' <'dflt' 'CAT ' 'MOL ' 'ROM ' 'TRK ' > 'grek' <'dflt' > 'DFLT' <'dflt' > ) ]
Lookup: 1 0 0 "Single Substitution lookup 3"  {"Single Substitution lookup 3 subtable"  } []
Lookup: 1 0 0 "Single Substitution lookup 4"  {"Single Substitution lookup 4 subtable"  } []
Lookup: 4 0 0 "dligDiscretionaryLigatureslooku"  {"dligDiscretionaryLigatureslooku subtable"  } ['dlig' ('latn' <'dflt' 'CAT ' 'MOL ' 'ROM ' 'TRK ' > 'grek' <'dflt' > 'DFLT' <'dflt' > ) ]
MarkAttachClasses: 1
DEI: 91125
ChainSub2: coverage "ordnOrdinalslookup12 contextual 1"  0 0 0 1
 1 1 0
  Coverage: 3 O o
  BCoverage: 49 zero one two three four five six seven eight nine
 1
  SeqLookup: 0 "Single Substitution lookup 4" 
EndFPST

StartChar: A
Encoding: 33 65 0
Width: 1538
VWidth: 0
GlyphClass: 2
Flags: W
PickledData: "(dp1
S'org.pippin.gimp.org.kernagic'
p2
(dp3
S'lstem'
p4
I0
sS'rstem'
p5
I0
ssS'com.typemytype.robofont.layerData'
p6
(dp7
sS'org.robofab.postScriptHintData'
p8
(dp9
s."
AnchorPoint: "top" 777 1456 basechar 0
LayerCount: 2
Fore
SplineSet
533 1456 m 257
 53 0 l 257
 436 0 l 257
 550 362 l 257
 982 362 l 257
 1102 0 l 257
 1485 0 l 257
 1011 1456 l 257
 533 1456 l 257
619 593 m 257
 771 1150 l 257
 918 593 l 257
 619 593 l 257
EndSplineSet
Substitution2: "Single Substitution lookup 3 subtable" ordfeminine
EndChar

StartChar: AE
Encoding: 133 198 1
Width: 2045
VWidth: 0
GlyphClass: 2
Flags: W
PickledData: "(dp1
S'org.pippin.gimp.org.kernagic'
p2
(dp3
S'lstem'
p4
I0
sS'rstem'
p5
I0
ssS'com.typemytype.robofont.layerData'
p6
(dp7
sS'org.robofab.postScriptHintData'
p8
(dp9
s."
LayerCount: 2
Fore
SplineSet
965 578 m 257
 696 578 l 257
 965 1048 l 257
 965 578 l 257
907 1456 m 257
 12 0 l 257
 384 0 l 257
 592 358 l 257
 965 358 l 257
 965 0 l 257
 1917 0 l 257
 1926 249 l 257
 1256 249 l 257
 1256 615 l 257
 1863 615 l 257
 1863 857 l 257
 1256 857 l 257
 1256 1216 l 257
 1883 1216 l 257
 1903 1456 l 257
 907 1456 l 257
EndSplineSet
EndChar

StartChar: B
Encoding: 34 66 13
Width: 1444
VWidth: 0
GlyphClass: 2
Flags: W
PickledData: "(dp1
S'org.pippin.gimp.org.kernagic'
p2
(dp3
S'lstem'
p4
I0
sS'rstem'
p5
I0
ssS'com.typemytype.robofont.layerData'
p6
(dp7
sS'org.robofab.postScriptHintData'
p8
(dp9
s."
AnchorPoint: "top" 700 1456 basechar 0
LayerCount: 2
Fore
SplineSet
610 2 m 256
 1218 2 1359 154 1359 434 c 256
 1359 641 1263 739 1044 781 c 257
 1218 834 1321 940 1321 1083 c 256
 1321 1460 986 1467 622 1467 c 256
 492 1467 340 1462 171 1454 c 257
 171 20 l 257
 339 7 486 2 610 2 c 256
552 1231 m 257
 584 1232 618 1232 650 1232 c 256
 844 1232 922 1206 922 1045 c 256
 922 922 839 875 707 875 c 258
 552 875 l 257
 552 1231 l 257
552 653 m 257
 701 653 l 258
 885 653 981 631 981 461 c 256
 981 286 888 247 645 247 c 256
 614 247 582 248 552 250 c 257
 552 653 l 257
EndSplineSet
EndChar

StartChar: C
Encoding: 35 67 14
Width: 1593
VWidth: 0
GlyphClass: 2
Flags: W
PickledData: "(dp1
S'org.pippin.gimp.org.kernagic'
p2
(dp3
S'lstem'
p4
I0
sS'rstem'
p5
I0
ssS'com.typemytype.robofont.layerData'
p6
(dp7
sS'org.robofab.postScriptHintData'
p8
(dp9
s."
AnchorPoint: "top" 881 1456 basechar 0
LayerCount: 2
Fore
SplineSet
1485 1026 m 257
 1449 1189 1295 1476 853 1476 c 256
 387 1476 116 1206 116 733 c 256
 116 248 387 -20 852 -20 c 256
 1309 -20 1449 260 1485 427 c 257
 1206 540 l 257
 1178 540 l 257
 1143 404 1054 238 858 238 c 258
 856 238 l 258
 663 238 522 366 522 733 c 256
 522 1089 640 1201 859 1217 c 257
 870 1217 l 258
 1057 1217 1144 1046 1178 913 c 257
 1206 913 l 257
 1485 1026 l 257
EndSplineSet
EndChar

StartChar: D
Encoding: 36 68 21
Width: 1555
VWidth: 0
GlyphClass: 2
Flags: W
PickledData: "(dp1
S'org.pippin.gimp.org.kernagic'
p2
(dp3
S'lstem'
p4
I0
sS'rstem'
p5
I0
ssS'com.typemytype.robofont.layerData'
p6
(dp7
sS'com.fontlab.hintData'
p8
(dp9
S'vhints'
p10
((dp11
S'position'
p12
I1280
sS'width'
p13
I122
stp14
sS'hhints'
p15
((dp16
g12
I0
sg13
I94
s(dp17
g12
I1355
sg13
I94
stp18
ssS'org.robofab.postScriptHintData'
p19
(dp20
s."
HStem: 0 94 1355 94
VStem: 1280 122
AnchorPoint: "top" 810 1456 basechar 0
LayerCount: 2
Fore
SplineSet
171 6 m 257
 288 -6 396 -11 494 -11 c 256
 1223 -11 1439 301 1439 758 c 256
 1439 1273 1197 1468 521 1468 c 256
 415 1468 299 1463 171 1454 c 257
 171 6 l 257
552 260 m 257
 552 1213 l 257
 570 1214 587 1214 603 1214 c 256
 1024 1214 1071 997 1071 753 c 256
 1071 448 955 259 595 259 c 256
 581 259 567 259 552 260 c 257
EndSplineSet
EndChar

StartChar: uni0394
Encoding: 413 916 24
Width: 1334
VWidth: 0
Flags: W
PickledData: "(dp1
S'org.pippin.gimp.org.kernagic'
p2
(dp3
S'lstem'
p4
I0
sS'rstem'
p5
I0
ssS'com.typemytype.robofont.layerData'
p6
(dp7
S'b'
(dp8
S'name'
p9
S'Delta'
p10
sS'lib'
p11
(dp12
sS'unicodes'
p13
(tsS'width'
p14
I1334
sS'contours'
p15
(tsS'components'
p16
(tsS'anchors'
p17
(tsssS'org.robofab.postScriptHintData'
p18
(dp19
s."
LayerCount: 2
Fore
SplineSet
328 211 m 257
 648 1249 l 257
 976 211 l 257
 328 211 l 257
18 0 m 257
 1281 0 l 257
 772 1528 l 257
 527 1528 l 257
 18 0 l 257
EndSplineSet
EndChar

StartChar: E
Encoding: 37 69 25
Width: 1361
VWidth: 0
GlyphClass: 2
Flags: W
PickledData: "(dp1
S'org.pippin.gimp.org.kernagic'
p2
(dp3
S'lstem'
p4
I0
sS'rstem'
p5
I0
ssS'com.typemytype.robofont.layerData'
p6
(dp7
sS'org.robofab.postScriptHintData'
p8
(dp9
s."
AnchorPoint: "top" 756 1456 basechar 0
LayerCount: 2
Fore
SplineSet
171 1456 m 257
 171 0 l 257
 1229 0 l 257
 1233 260 l 257
 551 260 l 257
 551 619 l 257
 1175 619 l 257
 1175 872 l 257
 551 872 l 257
 551 1205 l 257
 1194 1205 l 257
 1214 1456 l 257
 171 1456 l 257
EndSplineSet
EndChar

StartChar: Eng
Encoding: 265 330 34
Width: 1636
VWidth: 0
GlyphClass: 2
Flags: W
PickledData: "(dp1
S'org.robofab.postScriptHintData'
p2
(dp3
s."
LayerCount: 2
Fore
SplineSet
1110 1069 m 257
 1111 -17 l 258
 1111 -247 1076 -280 847 -280 c 257
 873 -505 l 257
 1331 -488 1466 -361 1466 -57 c 258
 1466 1069 l 257
 1110 1069 l 257
EndSplineSet
Refer: 70 78 N 1 0 0 1 0 0 2
EndChar

StartChar: Euro
Encoding: 461 8364 37
Width: 1391
VWidth: 0
GlyphClass: 2
Flags: W
PickledData: "(dp1
S'org.pippin.gimp.org.kernagic'
p2
(dp3
S'lstem'
p4
I0
sS'rstem'
p5
I0
ssS'com.typemytype.robofont.layerData'
p6
(dp7
S'b'
(dp8
S'name'
p9
S'Euro'
p10
sS'lib'
p11
(dp12
sS'unicodes'
p13
(tsS'width'
p14
I1391
sS'contours'
p15
(tsS'components'
p16
(tsS'anchors'
p17
(tsssS'org.robofab.postScriptHintData'
p18
(dp19
s."
LayerCount: 2
Fore
SplineSet
-89 526 m 257
 804 526 l 257
 802 679 l 257
 263 679 l 257
 263 802 l 257
 802 802 l 257
 803 955 l 257
 -90 955 l 257
 -90 802 l 257
 87 802 l 257
 87 679 l 257
 -91 679 l 257
 -89 526 l 257
EndSplineSet
Refer: 14 67 N 1 0 0 1 -38 0 2
EndChar

StartChar: F
Encoding: 38 70 38
Width: 1256
VWidth: 0
GlyphClass: 2
Flags: W
PickledData: "(dp1
S'org.pippin.gimp.org.kernagic'
p2
(dp3
S'lstem'
p4
I0
sS'rstem'
p5
I705
ssS'com.typemytype.robofont.layerData'
p6
(dp7
sS'org.robofab.postScriptHintData'
p8
(dp9
s."
AnchorPoint: "top" 727 1456 basechar 0
LayerCount: 2
Fore
SplineSet
171 1456 m 257
 171 0 l 257
 552 0 l 257
 552 589 l 257
 1138 589 l 257
 1138 841 l 257
 552 841 l 257
 552 1193 l 257
 1165 1193 l 257
 1182 1456 l 257
 171 1456 l 257
EndSplineSet
EndChar

StartChar: G
Encoding: 39 71 39
Width: 1594
VWidth: 0
GlyphClass: 2
Flags: W
PickledData: "(dp1
S'org.pippin.gimp.org.kernagic'
p2
(dp3
S'lstem'
p4
I0
sS'rstem'
p5
I0
ssS'com.typemytype.robofont.layerData'
p6
(dp7
sS'org.robofab.postScriptHintData'
p8
(dp9
s."
AnchorPoint: "top" 836 1456 basechar 0
LayerCount: 2
Fore
SplineSet
840 -20 m 256
 1087 -20 1289 10 1447 84 c 257
 1447 822 l 257
 839 822 l 257
 830 583 l 257
 1134 563 l 257
 1134 276 l 257
 1077 254 998 237 901 237 c 256
 699 237 522 335 522 727 c 256
 522 1072 640 1217 877 1217 c 256
 1048 1217 1122 1101 1171 992 c 257
 1198 992 l 257
 1451 1124 l 257
 1372 1327 1188 1476 843 1476 c 256
 395 1476 116 1205 116 727 c 256
 116 242 395 -20 840 -20 c 256
EndSplineSet
EndChar

StartChar: H
Encoding: 40 72 45
Width: 1594
VWidth: 0
GlyphClass: 2
Flags: W
PickledData: "(dp1
S'org.pippin.gimp.org.kernagic'
p2
(dp3
S'lstem'
p4
I0
sS'rstem'
p5
I0
ssS'com.typemytype.robofont.layerData'
p6
(dp7
sS'org.robofab.postScriptHintData'
p8
(dp9
s."
AnchorPoint: "top" 809 1456 basechar 0
LayerCount: 2
Fore
SplineSet
1042 620 m 257
 1042 -6 l 257
 1422 -6 l 257
 1422 1456 l 257
 1042 1456 l 257
 1042 871 l 257
 552 871 l 257
 552 1456 l 257
 172 1456 l 257
 172 -6 l 257
 552 -6 l 257
 552 620 l 257
 1042 620 l 257
EndSplineSet
EndChar

StartChar: Hbar
Encoding: 229 294 46
Width: 1589
VWidth: 0
GlyphClass: 2
Flags: W
PickledData: "(dp1
S'org.pippin.gimp.org.kernagic'
p2
(dp3
S'lstem'
p4
I0
sS'rstem'
p5
I0
ssS'com.typemytype.robofont.layerData'
p6
(dp7
sS'org.robofab.postScriptHintData'
p8
(dp9
s."
LayerCount: 2
Fore
SplineSet
63 1289 m 257
 63 1089 l 257
 1522 1089 l 257
 1522 1289 l 257
 63 1289 l 257
EndSplineSet
Refer: 45 72 N 1 0 0 1 0 0 2
EndChar

StartChar: I
Encoding: 41 73 48
Width: 1051
VWidth: 0
GlyphClass: 2
Flags: W
PickledData: "(dp1
S'org.pippin.gimp.org.kernagic'
p2
(dp3
S'lstem'
p4
I0
sS'rstem'
p5
I0
ssS'com.typemytype.robofont.layerData'
p6
(dp7
sS'com.fontlab.hintData'
p8
(dp9
S'vhints'
p10
((dp11
S'position'
p12
I111
sS'width'
p13
I529
stp14
sS'hhints'
p15
((dp16
g12
I0
sg13
I86
s(dp17
g12
I1363
sg13
I86
stp18
ssS'org.robofab.postScriptHintData'
p19
(dp20
s."
HStem: 0 86 1363 86
VStem: 111 529
AnchorPoint: "top" 528 1456 basechar 0
LayerCount: 2
Fore
SplineSet
119 1456 m 257
 119 1252 l 257
 339 1252 l 257
 339 198 l 257
 119 198 l 257
 119 -6 l 257
 931 -6 l 257
 931 198 l 257
 718 198 l 257
 718 1252 l 257
 931 1252 l 257
 931 1456 l 257
 119 1456 l 257
EndSplineSet
EndChar

StartChar: J
Encoding: 42 74 59
Width: 817
VWidth: 0
GlyphClass: 2
Flags: W
PickledData: "(dp1
S'org.pippin.gimp.org.kernagic'
p2
(dp3
S'lstem'
p4
I132
sS'rstem'
p5
I0
ssS'com.typemytype.robofont.layerData'
p6
(dp7
sS'org.robofab.postScriptHintData'
p8
(dp9
s."
AnchorPoint: "top" 458 1456 basechar 0
LayerCount: 2
Fore
SplineSet
263 1456 m 257
 263 280 l 258
 263 -81 254 -138 140 -194 c 258
 -55 -289 l 257
 78 -581 l 257
 245 -507 l 258
 617 -343 643 -209 643 107 c 256
 643 157 642 211 642 271 c 258
 642 1456 l 257
 263 1456 l 257
EndSplineSet
EndChar

StartChar: K
Encoding: 43 75 61
Width: 1452
VWidth: 0
GlyphClass: 2
Flags: W
PickledData: "(dp1
S'org.pippin.gimp.org.kernagic'
p2
(dp3
S'lstem'
p4
I0
sS'rstem'
p5
I851
ssS'com.typemytype.robofont.layerData'
p6
(dp7
sS'org.robofab.postScriptHintData'
p8
(dp9
s."
AnchorPoint: "top" 779 1456 basechar 0
LayerCount: 2
Fore
SplineSet
1399 1456 m 257
 981 1456 l 257
 552 897 l 257
 552 1456 l 257
 171 1456 l 257
 171 0 l 257
 552 0 l 257
 552 529 l 257
 602 589 l 257
 1029 0 l 257
 1453 0 l 257
 1453 6 l 257
 880 794 l 257
 1399 1453 l 257
 1399 1456 l 257
EndSplineSet
EndChar

StartChar: L
Encoding: 44 76 63
Width: 1205
VWidth: 0
GlyphClass: 2
Flags: W
PickledData: "(dp1
S'org.pippin.gimp.org.kernagic'
p2
(dp3
S'lstem'
p4
I0
sS'rstem'
p5
I597
ssS'com.typemytype.robofont.layerData'
p6
(dp7
sS'org.robofab.postScriptHintData'
p8
(dp9
s."
AnchorPoint: "top" 373 1456 basechar 0
LayerCount: 2
Fore
SplineSet
171 1456 m 257
 171 0 l 257
 1166 0 l 257
 1186 239 l 257
 552 239 l 257
 552 1456 l 257
 171 1456 l 257
EndSplineSet
EndChar

StartChar: M
Encoding: 45 77 69
Width: 1905
VWidth: 0
GlyphClass: 2
Flags: W
PickledData: "(dp1
S'org.pippin.gimp.org.kernagic'
p2
(dp3
S'lstem'
p4
I0
sS'rstem'
p5
I0
ssS'com.fontlab.hintData'
p6
(dp7
S'vhints'
p8
((dp9
S'position'
p10
I185
sS'width'
p11
I166
s(dp12
g10
I214
sg11
I151
s(dp13
g10
I332
sg11
I33
s(dp14
g10
I1463
sg11
I149
s(dp15
g10
I1463
sg11
I39
s(dp16
g10
I1477
sg11
I164
stp17
ssS'com.typemytype.robofont.guides'
p18
((dp19
S'y'
I378
sS'x'
I548
sS'magnetic'
p20
I5
sS'angle'
p21
I0
sS'isGlobal'
p22
I00
stp23
sS'com.typemytype.robofont.layerData'
p24
(dp25
sS'org.robofab.postScriptHintData'
p26
(dp27
s."
VStem: 185 166 214 151 332 33 1463 149 1463 39 1477 164
AnchorPoint: "top" 954 1456 basechar 0
LayerCount: 2
Fore
SplineSet
153 -6 m 257
 508 -6 l 257
 508 555 l 257
 516 902 l 257
 834 237 l 257
 1062 237 l 257
 1387 901 l 257
 1394 558 l 257
 1394 -6 l 257
 1752 -6 l 257
 1752 621 l 257
 1730 1456 l 257
 1352 1456 l 257
 957 662 l 257
 561 1456 l 257
 175 1456 l 257
 153 612 l 257
 153 -6 l 257
EndSplineSet
EndChar

StartChar: N
Encoding: 46 78 70
Width: 1637
VWidth: 0
GlyphClass: 2
Flags: W
PickledData: "(dp1
S'org.pippin.gimp.org.kernagic'
p2
(dp3
S'lstem'
p4
I0
sS'rstem'
p5
I0
ssS'com.typemytype.robofont.layerData'
p6
(dp7
sS'org.robofab.postScriptHintData'
p8
(dp9
s."
AnchorPoint: "top" 762 1456 basechar 0
LayerCount: 2
Fore
SplineSet
1111 1456 m 257
 1111 903 l 257
 1128 523 l 257
 530 1456 l 257
 171 1456 l 257
 171 0 l 257
 536 0 l 257
 536 530 l 257
 519 889 l 257
 1094 0 l 257
 1466 0 l 257
 1466 1456 l 257
 1111 1456 l 257
EndSplineSet
EndChar

StartChar: O
Encoding: 47 79 76
Width: 1661
VWidth: 0
GlyphClass: 2
Flags: W
PickledData: "(dp1
S'org.pippin.gimp.org.kernagic'
p2
(dp3
S'lstem'
p4
I0
sS'rstem'
p5
I0
ssS'com.fontlab.hintData'
p6
(dp7
S'vhints'
p8
((dp9
S'position'
p10
I150
sS'width'
p11
I122
s(dp12
g10
I1390
sg11
I122
stp13
sS'hhints'
p14
((dp15
g10
I-19
sg11
I96
s(dp16
g10
I1372
sg11
I96
stp17
ssS'com.typemytype.robofont.guides'
p18
(tsS'com.typemytype.robofont.layerData'
p19
(dp20
sS'org.robofab.postScriptHintData'
p21
(dp22
s."
HStem: -19 96 1372 96
VStem: 150 122 1390 122
AnchorPoint: "top" 821 1456 basechar 0
LayerCount: 2
Fore
SplineSet
1138 722 m 256
 1138 420 1034 250 833 250 c 256
 630 250 522 419 522 722 c 256
 522 1023 631 1204 832 1204 c 256
 1035 1204 1138 1023 1138 722 c 256
116 723 m 256
 116 247 376 -22 832 -22 c 256
 1291 -22 1545 246 1545 724 c 256
 1545 1198 1288 1476 831 1476 c 256
 376 1476 116 1200 116 723 c 256
EndSplineSet
Substitution2: "Single Substitution lookup 4 subtable" ordmasculine
EndChar

StartChar: OE
Encoding: 273 338 77
Width: 2232
VWidth: 0
GlyphClass: 2
Flags: W
PickledData: "(dp1
S'org.pippin.gimp.org.kernagic'
p2
(dp3
S'lstem'
p4
I0
sS'rstem'
p5
I0
ssS'com.typemytype.robofont.layerData'
p6
(dp7
S'b'
(dp8
S'name'
p9
S'OE'
p10
sS'lib'
p11
(dp12
sS'unicodes'
p13
(tsS'width'
p14
I2367
sS'contours'
p15
(tsS'components'
p16
(tsS'anchors'
p17
(tsssS'org.robofab.postScriptHintData'
p18
(dp19
s."
LayerCount: 2
Fore
SplineSet
1094 727 m 256
 1094 428 987 245 748 245 c 256
 509 245 397 428 397 727 c 256
 397 1033 510 1222 748 1222 c 256
 987 1222 1094 1033 1094 727 c 256
72 728 m 256
 72 248 323 -16 748 -16 c 256
 907 -16 1008 9 1095 61 c 257
 1095 0 l 257
 2085 0 l 257
 2090 249 l 257
 1394 249 l 257
 1394 625 l 257
 2032 625 l 257
 2032 866 l 257
 1394 866 l 257
 1394 1216 l 257
 2052 1216 l 257
 2071 1456 l 257
 1095 1456 l 257
 1095 1404 l 257
 1008 1458 909 1483 747 1483 c 256
 323 1483 72 1217 72 728 c 256
EndSplineSet
EndChar

StartChar: Oslash
Encoding: 151 216 85
Width: 1665
VWidth: 0
GlyphClass: 2
Flags: W
PickledData: "(dp1
S'org.pippin.gimp.org.kernagic'
p2
(dp3
S'lstem'
p4
I0
sS'rstem'
p5
I0
ssS'com.typemytype.robofont.layerData'
p6
(dp7
sS'org.robofab.postScriptHintData'
p8
(dp9
s."
AnchorPoint: "top" 831 1456 basechar 0
LayerCount: 2
Fore
SplineSet
833 250 m 256
 799 250 769 255 740 265 c 257
 1054 1082 l 257
 1110 1001 1138 877 1138 722 c 256
 1138 420 1034 250 833 250 c 256
615 359 m 257
 553 438 522 562 522 722 c 256
 522 1023 631 1204 832 1204 c 256
 867 1204 900 1198 929 1188 c 257
 615 359 l 257
540 -256 m 257
 637 -4 l 257
 698 -16 763 -22 832 -22 c 256
 1291 -22 1545 246 1545 724 c 256
 1545 1060 1416 1297 1179 1407 c 257
 1282 1675 l 257
 1136 1731 l 257
 1031 1456 l 257
 970 1470 903 1476 831 1476 c 256
 376 1476 116 1200 116 723 c 256
 116 381 249 147 493 41 c 257
 400 -205 l 257
 540 -256 l 257
EndSplineSet
EndChar

StartChar: P
Encoding: 48 80 88
Width: 1457
VWidth: 0
GlyphClass: 2
Flags: W
PickledData: "(dp1
S'org.pippin.gimp.org.kernagic'
p2
(dp3
S'lstem'
p4
I0
sS'rstem'
p5
I807
ssS'com.typemytype.robofont.layerData'
p6
(dp7
sS'org.robofab.postScriptHintData'
p8
(dp9
s."
AnchorPoint: "top" 732 1456 basechar 0
LayerCount: 2
Fore
SplineSet
171 1454 m 257
 171 0 l 257
 552 0 l 257
 552 496 l 257
 601 493 648 492 692 492 c 256
 1218 492 1388 683 1388 1008 c 256
 1388 1323 1205 1469 574 1469 c 256
 456 1469 322 1464 171 1454 c 257
552 740 m 257
 552 1225 l 257
 582 1226 610 1227 637 1227 c 256
 975 1227 1024 1124 1024 990 c 256
 1024 849 955 737 641 737 c 256
 613 737 584 738 552 740 c 257
EndSplineSet
EndChar

StartChar: Q
Encoding: 49 81 89
Width: 1662
VWidth: 0
GlyphClass: 2
Flags: W
PickledData: "(dp1
S'org.pippin.gimp.org.kernagic'
p2
(dp3
S'lstem'
p4
I0
sS'rstem'
p5
I0
ssS'com.typemytype.robofont.layerData'
p6
(dp7
sS'org.robofab.postScriptHintData'
p8
(dp9
s."
LayerCount: 2
Fore
SplineSet
749 86 m 257
 780 -15 1083 -402 1246 -536 c 257
 1485 -337 l 257
 1326 -202 1177 -15 1085 128 c 257
 749 86 l 257
EndSplineSet
Refer: 76 79 N 1 0 0 1 0 0 2
EndChar

StartChar: R
Encoding: 50 82 90
Width: 1494
VWidth: 0
GlyphClass: 2
Flags: W
PickledData: "(dp1
S'org.pippin.gimp.org.kernagic'
p2
(dp3
S'lstem'
p4
I0
sS'rstem'
p5
I839
ssS'com.typemytype.robofont.layerData'
p6
(dp7
sS'com.fontlab.hintData'
p8
(dp9
S'vhints'
p10
((dp11
S'position'
p12
I1122
sS'width'
p13
I117
stp14
sS'hhints'
p15
((dp16
g12
I722
sg13
I96
s(dp17
g12
I1355
sg13
I94
stp18
ssS'org.robofab.postScriptHintData'
p19
(dp20
s."
HStem: 722 96 1355 94
VStem: 1122 117
AnchorPoint: "top" 757 1456 basechar 0
LayerCount: 2
Fore
SplineSet
171 0 m 257
 552 0 l 257
 552 606 l 257
 717 606 l 257
 1026 0 l 257
 1440 0 l 257
 1440 16 l 257
 1096 658 l 257
 1224 700 1363 790 1363 1035 c 256
 1363 1383 1185 1480 720 1480 c 256
 569 1480 387 1469 171 1454 c 257
 171 0 l 257
552 1213 m 257
 625 1219 692 1224 752 1224 c 256
 912 1224 1017 1188 1017 1042 c 256
 1017 881 943 833 750 833 c 258
 552 833 l 257
 552 1213 l 257
EndSplineSet
EndChar

StartChar: S
Encoding: 51 83 94
Width: 1228
VWidth: 0
GlyphClass: 2
Flags: W
PickledData: "(dp1
S'org.pippin.gimp.org.kernagic'
p2
(dp3
S'lstem'
p4
I185
sS'rstem'
p5
I826
ssS'com.typemytype.robofont.guides'
p6
((dp7
S'y'
I973
sS'x'
I1035
sS'magnetic'
p8
I5
sS'angle'
p9
F90
sS'isGlobal'
p10
I00
s(dp11
S'y'
I382
sS'x'
I75
sg8
I5
sg9
F90
sg10
I00
stp12
sS'com.typemytype.robofont.layerData'
p13
(dp14
sS'org.robofab.postScriptHintData'
p15
(dp16
s."
AnchorPoint: "top" 618 1458 basechar 0
LayerCount: 2
Fore
SplineSet
1107 1206 m 257
 1063 1325 898 1476 606 1476 c 256
 331 1476 90 1357 90 1055 c 256
 90 830 198 735 358 669 c 258
 582 577 l 258
 736 514 762 471 762 391 c 256
 762 288 697 248 597 248 c 256
 496 248 390 333 337 404 c 257
 304 404 l 257
 76 236 l 257
 153 117 322 -20 613 -20 c 256
 921 -20 1147 131 1147 414 c 256
 1147 676 1019 766 810 850 c 258
 638 918 l 258
 509 970 462 1002 462 1086 c 256
 463 1187 541 1228 626 1228 c 256
 694 1227 793 1181 833 1080 c 257
 857 1080 l 257
 1107 1206 l 257
EndSplineSet
EndChar

StartChar: T
Encoding: 52 84 100
Width: 1280
VWidth: 0
GlyphClass: 2
Flags: W
PickledData: "(dp1
S'org.pippin.gimp.org.kernagic'
p2
(dp3
S'lstem'
p4
I285
sS'rstem'
p5
I844
ssS'com.typemytype.robofont.layerData'
p6
(dp7
sS'org.robofab.postScriptHintData'
p8
(dp9
s."
AnchorPoint: "top" 647 1456 basechar 0
LayerCount: 2
Fore
SplineSet
42 1456 m 257
 42 1217 l 257
 451 1217 l 257
 451 -6 l 257
 830 -6 l 257
 830 1217 l 257
 1238 1217 l 257
 1238 1456 l 257
 42 1456 l 257
EndSplineSet
EndChar

StartChar: Thorn
Encoding: 157 222 105
Width: 1450
VWidth: 0
GlyphClass: 2
Flags: W
PickledData: "(dp1
S'org.pippin.gimp.org.kernagic'
p2
(dp3
S'lstem'
p4
I0
sS'rstem'
p5
I0
ssS'com.typemytype.robofont.layerData'
p6
(dp7
S'b'
(dp8
S'name'
p9
S'Thorn'
p10
sS'lib'
p11
(dp12
sS'unicodes'
p13
(tsS'width'
p14
I1192
sS'contours'
p15
(tsS'components'
p16
(tsS'anchors'
p17
(tsssS'org.robofab.postScriptHintData'
p18
(dp19
s."
LayerCount: 2
Fore
SplineSet
170 0 m 257
 550 0 l 257
 550 321 l 257
 688 321 l 258
 1201 321 1373 505 1373 830 c 256
 1373 1138 1185 1275 642 1275 c 258
 550 1275 l 257
 550 1459 l 257
 170 1459 l 257
 170 0 l 257
550 1036 m 257
 662 1036 l 258
 959 1036 1008 947 1008 813 c 256
 1008 672 939 565 635 565 c 258
 550 565 l 257
 550 1036 l 257
EndSplineSet
EndChar

StartChar: U
Encoding: 53 85 106
Width: 1528
VWidth: 0
GlyphClass: 2
Flags: W
PickledData: "(dp1
S'org.pippin.gimp.org.kernagic'
p2
(dp3
S'lstem'
p4
I0
sS'rstem'
p5
I0
ssS'com.typemytype.robofont.layerData'
p6
(dp7
sS'org.robofab.postScriptHintData'
p8
(dp9
s."
AnchorPoint: "top" 764 1456 basechar 0
LayerCount: 2
Fore
SplineSet
1005 1456 m 257
 1005 557 l 258
 1005 342 920 251 760 251 c 256
 606 251 522 340 522 555 c 258
 522 1456 l 257
 143 1456 l 257
 143 533 l 258
 143 186 353 -20 760 -20 c 256
 1166 -20 1385 189 1385 533 c 258
 1385 1456 l 257
 1005 1456 l 257
EndSplineSet
EndChar

StartChar: V
Encoding: 54 86 117
Width: 1379
VWidth: 0
GlyphClass: 2
Flags: W
PickledData: "(dp1
S'org.pippin.gimp.org.kernagic'
p2
(dp3
S'lstem'
p4
I0
sS'rstem'
p5
I0
ssS'com.typemytype.robofont.layerData'
p6
(dp7
sS'org.robofab.postScriptHintData'
p8
(dp9
s."
LayerCount: 2
Fore
SplineSet
457 -6 m 257
 886 -6 l 257
 1372 1456 l 257
 1006 1456 l 257
 725 497 l 257
 683 326 l 257
 587 709 477 1079 375 1456 c 257
 7 1456 l 257
 457 -6 l 257
EndSplineSet
EndChar

StartChar: W
Encoding: 55 87 118
Width: 2047
VWidth: 0
GlyphClass: 2
Flags: W
PickledData: "(dp1
S'org.pippin.gimp.org.kernagic'
p2
(dp3
S'lstem'
p4
I0
sS'rstem'
p5
I0
ssS'com.typemytype.robofont.layerData'
p6
(dp7
sS'org.robofab.postScriptHintData'
p8
(dp9
s."
AnchorPoint: "top" 1028 1456 basechar 0
LayerCount: 2
Fore
SplineSet
1017 973 m 257
 1276 0 l 257
 1620 0 l 257
 1998 1456 l 257
 1631 1456 l 257
 1432 489 l 257
 1167 1450 l 257
 866 1450 l 257
 603 496 l 257
 415 1456 l 257
 49 1456 l 257
 398 0 l 257
 744 0 l 257
 1017 973 l 257
EndSplineSet
EndChar

StartChar: X
Encoding: 56 88 123
Width: 1421
VWidth: 0
GlyphClass: 2
Flags: W
PickledData: "(dp1
S'org.pippin.gimp.org.kernagic'
p2
(dp3
S'lstem'
p4
I0
sS'rstem'
p5
I0
ssS'com.typemytype.robofont.layerData'
p6
(dp7
sS'org.robofab.postScriptHintData'
p8
(dp9
s."
LayerCount: 2
Fore
SplineSet
935 739 m 257
 1406 1456 l 257
 999 1456 l 257
 737 1038 l 257
 458 1456 l 257
 44 1456 l 257
 502 768 l 257
 -10 -6 l 257
 383 -6 l 257
 699 471 l 257
 1017 -6 l 257
 1431 -6 l 257
 935 739 l 257
EndSplineSet
EndChar

StartChar: Y
Encoding: 57 89 124
Width: 1348
VWidth: 0
GlyphClass: 2
Flags: W
PickledData: "(dp1
S'org.pippin.gimp.org.kernagic'
p2
(dp3
S'lstem'
p4
I0
sS'rstem'
p5
I0
ssS'com.typemytype.robofont.layerData'
p6
(dp7
sS'org.robofab.postScriptHintData'
p8
(dp9
s."
AnchorPoint: "top" 678 1456 basechar 0
LayerCount: 2
Fore
SplineSet
863 574 m 257
 1348 1456 l 257
 949 1456 l 257
 672 927 l 257
 400 1456 l 257
 0 1456 l 257
 483 570 l 257
 483 0 l 257
 863 0 l 257
 863 574 l 257
EndSplineSet
EndChar

StartChar: Z
Encoding: 58 90 129
Width: 1266
VWidth: 0
GlyphClass: 2
Flags: W
PickledData: "(dp1
S'org.pippin.gimp.org.kernagic'
p2
(dp3
S'lstem'
p4
I0
sS'rstem'
p5
I0
ssS'com.typemytype.robofont.layerData'
p6
(dp7
sS'org.robofab.postScriptHintData'
p8
(dp9
s."
AnchorPoint: "top" 641 1456 basechar 0
LayerCount: 2
Fore
SplineSet
107 0 m 257
 1187 0 l 257
 1173 239 l 257
 556 239 l 257
 1156 1243 l 257
 1156 1456 l 257
 116 1456 l 257
 132 1216 l 257
 746 1216 l 257
 107 197 l 257
 107 0 l 257
EndSplineSet
EndChar

StartChar: a
Encoding: 65 97 133
Width: 1162
VWidth: 0
GlyphClass: 2
Flags: W
PickledData: "(dp1
S'org.pippin.gimp.org.kernagic'
p2
(dp3
S'lstem'
p4
I0
sS'rstem'
p5
I0
ssS'com.fontlab.hintData'
p6
(dp7
S'vhints'
p8
((dp9
S'position'
p10
I126
sS'width'
p11
I120
s(dp12
g10
I842
sg11
I32
s(dp13
g10
I875
sg11
I86
stp14
sS'hhints'
p15
((dp16
g10
I-15
sg11
I92
s(dp17
g10
I535
sg11
I82
s(dp18
g10
I983
sg11
I92
stp19
ssS'com.typemytype.robofont.guides'
p20
(tsS'com.typemytype.robofont.layerData'
p21
(dp22
sS'org.robofab.postScriptHintData'
p23
(dp24
s."
HStem: -15 92 535 82 983 92
VStem: 126 120 842 32 875 86
AnchorPoint: "top" 561 1081 basechar 0
LayerCount: 2
Fore
SplineSet
703 250 m 257
 675 219 619 176 530 176 c 256
 465 176 402 217 402 311 c 256
 402 433 513 466 638 466 c 257
 703 465 l 257
 703 250 l 257
415 -16 m 256
 582 -16 681 44 755 118 c 257
 792 0 l 257
 1055 0 l 257
 1055 633 l 258
 1055 967 854 1101 594 1101 c 256
 445 1101 278 1058 124 981 c 257
 189 769 l 257
 311 818 436 853 532 853 c 256
 637 853 705 810 705 699 c 258
 705 626 l 257
 562 627 l 257
 557 627 l 258
 341 627 84 559 84 305 c 256
 84 93 220 -16 415 -16 c 256
EndSplineSet
Substitution2: "Single Substitution lookup 3 subtable" ordfeminine
EndChar

StartChar: acute
Encoding: 115 180 137
Width: 795
VWidth: 0
GlyphClass: 4
Flags: W
PickledData: "(dp1
S'org.robofab.postScriptHintData'
p2
(dp3
sS'com.typemytype.robofont.layerData'
p4
(dp5
s."
AnchorPoint: "top" 500 1082 mark 0
LayerCount: 2
Fore
SplineSet
396 1207 m 257
 594 1207 l 257
 933 1614 l 257
 571 1614 l 257
 396 1207 l 257
EndSplineSet
EndChar

StartChar: ae
Encoding: 165 230 139
Width: 1753
VWidth: 0
GlyphClass: 2
Flags: W
PickledData: "(dp1
S'org.pippin.gimp.org.kernagic'
p2
(dp3
S'lstem'
p4
I0
sS'rstem'
p5
I0
ssS'com.typemytype.robofont.layerData'
p6
(dp7
sS'com.fontlab.hintData'
p8
(dp9
S'vhints'
p10
((dp11
S'position'
p12
I126
sS'width'
p13
I119
s(dp14
g12
I817
sg13
I117
s(dp15
g12
I817
sg13
I82
s(dp16
g12
I1556
sg13
I98
stp17
sS'hhints'
p18
((dp19
g12
I-14
sg13
I98
s(dp20
g12
I518
sg13
I82
s(dp21
g12
I983
sg13
I92
stp22
ssS'org.robofab.postScriptHintData'
p23
(dp24
s."
HStem: -14 98 518 82 983 92
VStem: 126 119 817 117 817 82 1556 98
AnchorPoint: "top" 1198 1082 basechar 0
LayerCount: 2
Fore
SplineSet
1439 752 m 256
 1439 669 1384 616 1053 616 c 258
 1017 616 l 257
 1029 813 1152 883 1253 883 c 256
 1404 883 1439 818 1439 752 c 256
387 309 m 256
 387 432 495 468 620 468 c 256
 624 468 703 468 710 467 c 257
 710 438 732 318 749 281 c 257
 727 243 661 189 529 176 c 256
 525 176 520 175 516 175 c 256
 452 175 387 216 387 309 c 256
1232 -20 m 256
 1414 -20 1578 35 1662 114 c 257
 1604 306 l 257
 1521 253 1410 208 1272 208 c 256
 1163 208 1040 226 1015 426 c 257
 1042 426 l 258
 1423 426 1672 489 1672 720 c 256
 1671 885 1560 1102 1247 1102 c 256
 1071 1102 963 1034 894 934 c 257
 859 1036 742 1100 579 1100 c 256
 427 1100 263 1056 107 978 c 257
 174 768 l 257
 297 818 422 852 517 852 c 256
 622 852 706 811 706 699 c 258
 706 628 l 257
 699 628 549 630 545 630 c 258
 540 630 l 258
 323 630 68 559 68 305 c 256
 68 86 208 -16 413 -16 c 256
 604 -16 751 40 836 140 c 257
 910 54 1003 -20 1232 -20 c 256
EndSplineSet
EndChar

StartChar: ampersand
Encoding: 6 38 144
Width: 1420
VWidth: 0
GlyphClass: 2
Flags: W
PickledData: "(dp1
S'org.pippin.gimp.org.kernagic'
p2
(dp3
S'lstem'
p4
I0
sS'rstem'
p5
I0
ssS'com.typemytype.robofont.layerData'
p6
(dp7
sS'com.fontlab.hintData'
p8
(dp9
S'vhints'
p10
((dp11
S'position'
p12
I135
sS'width'
p13
I121
s(dp14
g12
I312
sg13
I105
s(dp15
g12
I917
sg13
I110
stp16
sS'hhints'
p17
((dp18
g12
I-19
sg13
I96
s(dp19
g12
I1372
sg13
I96
stp20
ssS'org.robofab.postScriptHintData'
p21
(dp22
s."
HStem: -19 96 1372 96
VStem: 135 121 312 105 917 110
LayerCount: 2
Fore
SplineSet
611 979 m 257
 530 1074 510 1127 510 1217 c 256
 510 1313 571 1342 647 1342 c 256
 727 1342 787 1312 787 1222 c 256
 787 1139 697 1022 611 979 c 257
652 1539 m 256
 451 1539 241 1428 241 1184 c 256
 241 1048 360 911 405 867 c 257
 284 782 95 655 95 458 c 256
 95 126 307 -16 612 -16 c 256
 785 -16 920 44 1032 136 c 257
 1187 -37 l 257
 1373 113 l 257
 1197 309 l 257
 1283 420 1354 544 1421 656 c 257
 1244 781 l 257
 1184 668 1120 562 1051 472 c 257
 722 838 l 257
 886 925 1042 1081 1042 1227 c 256
 1042 1454 830 1539 652 1539 c 256
886 300 m 257
 803 235 714 197 616 197 c 256
 475 197 366 271 366 427 c 256
 366 437 366 447 367 458 c 256
 376 569 523 685 537 692 c 257
 886 300 l 257
EndSplineSet
EndChar

StartChar: uni02BC
Encoding: 65538 700 146
Width: 650
VWidth: 0
Flags: W
PickledData: "(dp1
S'org.robofab.postScriptHintData'
p2
(dp3
sS'com.typemytype.robofont.layerData'
p4
(dp5
s."
LayerCount: 2
Fore
SplineSet
48 1092 m 257
 294 1092 l 257
 294 1092 356 1375 390 1563 c 257
 99 1563 l 257
 89 1468 48 1092 48 1092 c 257
EndSplineSet
EndChar

StartChar: approxequal
Encoding: 477 8776 147
Width: 1299
VWidth: 0
GlyphClass: 2
Flags: W
PickledData: "(dp1
S'org.pippin.gimp.org.kernagic'
p2
(dp3
S'lstem'
p4
I0
sS'rstem'
p5
I0
ssS'com.typemytype.robofont.layerData'
p6
(dp7
S'b'
(dp8
S'name'
p9
S'approxequal'
p10
sS'lib'
p11
(dp12
sS'unicodes'
p13
(tsS'width'
p14
I1136
sS'contours'
p15
(tsS'components'
p16
(tsS'anchors'
p17
(tsssS'org.robofab.postScriptHintData'
p18
(dp19
s."
LayerCount: 2
Fore
SplineSet
251 311 m 257
 273 415 314 474 397 474 c 256
 450 474 499 446 537 426 c 256
 684 344 771 307 877 307 c 256
 1073 307 1137 426 1176 596 c 257
 1035 665 l 257
 990 541 930 508 870 508 c 256
 813 508 751 538 678 579 c 256
 567 641 500 675 401 675 c 256
 224 675 124 560 93 382 c 257
 251 311 l 257
251 736 m 257
 273 841 314 899 398 899 c 256
 450 899 499 871 537 851 c 256
 684 769 771 733 877 733 c 256
 1073 733 1137 851 1176 1021 c 257
 1035 1091 l 257
 990 966 930 933 870 933 c 256
 813 933 751 963 678 1004 c 256
 567 1067 500 1100 401 1100 c 256
 224 1100 124 985 93 807 c 257
 251 736 l 257
EndSplineSet
EndChar

StartChar: asciicircum
Encoding: 62 94 150
Width: 1501
VWidth: 0
GlyphClass: 2
Flags: W
PickledData: "(dp1
S'org.pippin.gimp.org.kernagic'
p2
(dp3
S'lstem'
p4
I0
sS'rstem'
p5
I0
ssS'com.typemytype.robofont.layerData'
p6
(dp7
sS'org.robofab.postScriptHintData'
p8
(dp9
s."
LayerCount: 2
Fore
SplineSet
657 1456 m 257
 108 272 l 257
 463 272 l 257
 741 919 l 257
 1039 272 l 257
 1393 272 l 257
 810 1456 l 257
 657 1456 l 257
EndSplineSet
EndChar

StartChar: asciitilde
Encoding: 94 126 151
Width: 1192
VWidth: 0
GlyphClass: 2
Flags: W
PickledData: "(dp1
S'org.pippin.gimp.org.kernagic'
p2
(dp3
S'lstem'
p4
I0
sS'rstem'
p5
I0
ssS'com.typemytype.robofont.layerData'
p6
(dp7
S'b'
(dp8
S'name'
p9
S'asciitilde'
p10
sS'lib'
p11
(dp12
sS'unicodes'
p13
(tsS'width'
p14
I1192
sS'contours'
p15
(tsS'components'
p16
(tsS'anchors'
p17
(tsssS'org.robofab.postScriptHintData'
p18
(dp19
s."
LayerCount: 2
Fore
SplineSet
182 470 m 257
 221 542 281 609 364 609 c 256
 434 609 488 585 556 552 c 256
 648 509 720 480 817 480 c 256
 963 480 1091 578 1142 678 c 257
 1053 828 l 257
 969 736 906 699 834 699 c 256
 782 699 716 722 631 761 c 256
 550 797 460 825 375 825 c 256
 225 825 139 735 87 629 c 257
 182 470 l 257
EndSplineSet
EndChar

StartChar: asterisk
Encoding: 10 42 152
Width: 1047
VWidth: 0
GlyphClass: 2
Flags: W
PickledData: "(dp1
S'org.pippin.gimp.org.kernagic'
p2
(dp3
S'lstem'
p4
I0
sS'rstem'
p5
I0
ssS'com.typemytype.robofont.layerData'
p6
(dp7
sS'org.robofab.postScriptHintData'
p8
(dp9
s."
LayerCount: 2
Fore
SplineSet
358 476 m 257
 525 810 l 257
 699 474 l 257
 697 474 925 606 925 606 c 258
 928 607 727 869 684 926 c 257
 1033 1007 l 257
 959 1259 l 257
 620 1112 l 257
 652 1521 l 257
 399 1521 l 257
 433 1112 l 257
 96 1259 l 257
 23 1007 l 257
 368 926 l 257
 127 606 l 257
 358 476 l 257
EndSplineSet
EndChar

StartChar: at
Encoding: 32 64 153
Width: 2026
VWidth: 0
GlyphClass: 2
Flags: W
PickledData: "(dp1
S'org.pippin.gimp.org.kernagic'
p2
(dp3
S'lstem'
p4
I0
sS'rstem'
p5
I0
ssS'com.typemytype.robofont.layerData'
p6
(dp7
sS'org.robofab.postScriptHintData'
p8
(dp9
s."
LayerCount: 2
Fore
SplineSet
834 639 m 256
 834 836 936 1021 1099 1021 c 256
 1126 1021 1172 1017 1205 1011 c 257
 1167 775 l 257
 1134 541 1079 450 958 450 c 256
 879 450 834 508 834 639 c 256
1006 -125 m 256
 1219 -125 1443 -75 1576 28 c 257
 1512 189 l 257
 1372 110 1188 78 1009 78 c 256
 628 78 410 351 410 695 c 256
 410 1048 649 1380 1068 1380 c 256
 1478 1380 1665 1118 1665 847 c 256
 1665 582 1564 452 1474 452 c 256
 1425 452 1392 494 1392 570 c 256
 1392 699 1432 897 1461 1112 c 257
 1388 1151 1233 1202 1083 1202 c 256
 762 1202 581 922 581 656 c 256
 581 443 690 267 940 267 c 256
 1073 267 1179 360 1229 502 c 257
 1257 359 1408 337 1474 277 c 257
 1673 277 1906 466 1906 839 c 256
 1906 1287 1539 1589 1075 1589 c 256
 541 1589 152 1196 152 699 c 256
 152 175 499 -125 1006 -125 c 256
EndSplineSet
EndChar

StartChar: b
Encoding: 66 98 155
Width: 1268
VWidth: 0
GlyphClass: 2
Flags: W
PickledData: "(dp1
S'org.pippin.gimp.org.kernagic'
p2
(dp3
S'lstem'
p4
I0
sS'rstem'
p5
I0
ssS'com.fontlab.hintData'
p6
(dp7
S'vhints'
p8
((dp9
S'position'
p10
I193
sS'width'
p11
I125
s(dp12
g10
I193
sg11
I94
s(dp13
g10
I1018
sg11
I122
stp14
sS'hhints'
p15
((dp16
g10
I-19
sg11
I92
s(dp17
g10
I982
sg11
I92
stp18
ssS'com.typemytype.robofont.guides'
p19
(tsS'com.typemytype.robofont.layerData'
p20
(dp21
sS'org.robofab.postScriptHintData'
p22
(dp23
s."
HStem: -19 92 982 92
VStem: 193 125 193 94 1018 122
AnchorPoint: "top" 775 1082 basechar 0
LayerCount: 2
Fore
SplineSet
662 208 m 256
 559 208 517 246 483 290 c 257
 483 565 l 258
 483 813 578 873 676 873 c 256
 764 873 827 806 827 549 c 256
 827 299 750 208 662 208 c 256
745 -20 m 256
 1042 -20 1189 216 1189 549 c 256
 1189 862 1049 1102 760 1102 c 258
 758 1102 l 258
 617 1102 525 1035 473 942 c 257
 483 1149 l 257
 483 1560 l 257
 128 1540 l 257
 128 0 l 257
 446 0 l 257
 456 135 l 257
 501 59 591 -20 745 -20 c 256
EndSplineSet
EndChar

StartChar: backslash
Encoding: 60 92 156
Width: 937
VWidth: 0
GlyphClass: 2
Flags: W
PickledData: "(dp1
S'org.pippin.gimp.org.kernagic'
p2
(dp3
S'lstem'
p4
I0
sS'rstem'
p5
I0
ssS'com.typemytype.robofont.layerData'
p6
(dp7
S'b'
(dp8
S'name'
p9
S'backslash'
p10
sS'lib'
p11
(dp12
sS'unicodes'
p13
(tsS'width'
p14
I937
sS'contours'
p15
(tsS'components'
p16
(tsS'anchors'
p17
(tsssS'org.robofab.postScriptHintData'
p18
(dp19
s."
LayerCount: 2
Fore
SplineSet
568 18 m 257
 823 18 l 257
 353 1507 l 257
 93 1507 l 257
 568 18 l 257
EndSplineSet
EndChar

StartChar: bar
Encoding: 92 124 157
Width: 739
VWidth: 0
GlyphClass: 2
Flags: W
PickledData: "(dp1
S'org.pippin.gimp.org.kernagic'
p2
(dp3
S'lstem'
p4
I0
sS'rstem'
p5
I0
ssS'com.typemytype.robofont.layerData'
p6
(dp7
S'b'
(dp8
S'name'
p9
S'bar'
p10
sS'lib'
p11
(dp12
sS'unicodes'
p13
(tsS'width'
p14
I681
sS'contours'
p15
(tsS'components'
p16
(tsS'anchors'
p17
(tsssS'org.robofab.postScriptHintData'
p18
(dp19
s."
LayerCount: 2
Fore
SplineSet
271 1476 m 257
 271 -508 l 257
 478 -508 l 257
 478 1476 l 257
 271 1476 l 257
EndSplineSet
EndChar

StartChar: braceleft
Encoding: 91 123 158
Width: 960
VWidth: 0
GlyphClass: 2
Flags: W
PickledData: "(dp1
S'org.pippin.gimp.org.kernagic'
p2
(dp3
S'lstem'
p4
I0
sS'rstem'
p5
I0
ssS'com.typemytype.robofont.layerData'
p6
(dp7
sS'org.robofab.postScriptHintData'
p8
(dp9
s."
LayerCount: 2
Fore
SplineSet
829 -318 m 257
 829 -129 l 257
 702 -125 646 -115 646 23 c 258
 646 366 l 258
 646 474 629 602 446 638 c 257
 629 674 646 802 646 911 c 258
 646 1254 l 258
 646 1392 702 1402 829 1405 c 257
 829 1595 l 257
 633 1595 405 1570 405 1329 c 258
 405 943 l 258
 405 839 395 744 188 744 c 257
 188 533 l 257
 396 533 405 437 405 334 c 258
 405 -52 l 258
 405 -293 633 -318 829 -318 c 257
EndSplineSet
EndChar

StartChar: braceright
Encoding: 93 125 159
Width: 960
VWidth: 0
GlyphClass: 2
Flags: W
PickledData: "(dp1
S'org.pippin.gimp.org.kernagic'
p2
(dp3
S'lstem'
p4
I0
sS'rstem'
p5
I0
ssS'com.typemytype.robofont.layerData'
p6
(dp7
sS'org.robofab.postScriptHintData'
p8
(dp9
s."
LayerCount: 2
Fore
SplineSet
164 -318 m 257
 360 -318 588 -293 588 -52 c 258
 588 334 l 258
 588 437 597 533 804 533 c 257
 804 744 l 257
 597 744 588 839 588 943 c 258
 588 1329 l 258
 588 1570 360 1595 164 1595 c 257
 164 1405 l 257
 291 1402 347 1392 347 1254 c 258
 347 911 l 258
 347 802 364 674 547 638 c 257
 364 602 347 474 347 366 c 258
 347 23 l 258
 347 -115 291 -125 164 -129 c 257
 164 -318 l 257
EndSplineSet
EndChar

StartChar: bracketleft
Encoding: 59 91 160
Width: 823
VWidth: 0
GlyphClass: 2
Flags: W
PickledData: "(dp1
S'org.pippin.gimp.org.kernagic'
p2
(dp3
S'lstem'
p4
I0
sS'rstem'
p5
I0
ssS'com.typemytype.robofont.layerData'
p6
(dp7
sS'org.robofab.postScriptHintData'
p8
(dp9
s."
LayerCount: 2
Fore
SplineSet
226 -250 m 257
 674 -250 l 257
 674 -41 l 257
 476 -41 l 257
 476 1276 l 257
 674 1276 l 257
 674 1483 l 257
 226 1483 l 257
 226 -250 l 257
EndSplineSet
EndChar

StartChar: bracketright
Encoding: 61 93 161
Width: 965
VWidth: 0
GlyphClass: 2
Flags: W
PickledData: "(dp1
S'org.pippin.gimp.org.kernagic'
p2
(dp3
S'lstem'
p4
I0
sS'rstem'
p5
I0
ssS'com.typemytype.robofont.layerData'
p6
(dp7
sS'org.robofab.postScriptHintData'
p8
(dp9
s."
LayerCount: 2
Fore
SplineSet
296 -250 m 257
 744 -250 l 257
 744 1483 l 257
 296 1483 l 257
 296 1276 l 257
 494 1276 l 257
 494 -41 l 257
 296 -41 l 257
 296 -250 l 257
EndSplineSet
EndChar

StartChar: breve
Encoding: 401 728 162
Width: 937
VWidth: 0
GlyphClass: 4
Flags: W
PickledData: "(dp1
S'org.robofab.postScriptHintData'
p2
(dp3
sS'com.typemytype.robofont.layerData'
p4
(dp5
s."
AnchorPoint: "top" 447 1081 mark 0
LayerCount: 2
Fore
SplineSet
447 1321 m 256
 628 1321 744 1425 744 1595 c 257
 555 1595 l 257
 555 1538 512 1504 447 1504 c 256
 382 1504 339 1538 339 1595 c 257
 147 1595 l 257
 147 1425 264 1321 447 1321 c 256
EndSplineSet
EndChar

StartChar: uni0311
Encoding: 409 785 163
Width: 872
VWidth: 0
Flags: W
PickledData: "(dp1
S'org.robofab.postScriptHintData'
p2
(dp3
sS'com.typemytype.robofont.layerData'
p4
(dp5
s."
AnchorPoint: "top" 447 1081 mark 0
LayerCount: 2
Fore
SplineSet
146 1321 m 257
 337 1321 l 257
 337 1377 380 1412 445 1412 c 256
 510 1412 554 1377 554 1321 c 257
 742 1321 l 257
 742 1490 627 1595 445 1595 c 256
 263 1595 146 1490 146 1321 c 257
EndSplineSet
EndChar

StartChar: brokenbar
Encoding: 101 166 164
Width: 763
VWidth: 0
GlyphClass: 2
Flags: W
PickledData: "(dp1
S'org.pippin.gimp.org.kernagic'
p2
(dp3
S'lstem'
p4
I0
sS'rstem'
p5
I0
ssS'com.typemytype.robofont.layerData'
p6
(dp7
S'b'
(dp8
S'name'
p9
S'brokenbar'
p10
sS'lib'
p11
(dp12
sS'unicodes'
p13
(tsS'width'
p14
I653
sS'contours'
p15
(tsS'components'
p16
(tsS'anchors'
p17
(tsssS'org.robofab.postScriptHintData'
p18
(dp19
s."
LayerCount: 2
Fore
SplineSet
252 1440 m 257
 252 754 l 257
 478 754 l 257
 478 1440 l 257
 252 1440 l 257
252 296 m 257
 252 -390 l 257
 478 -390 l 257
 478 296 l 257
 252 296 l 257
EndSplineSet
EndChar

StartChar: bullet
Encoding: 454 8226 165
Width: 964
VWidth: 0
GlyphClass: 2
Flags: W
PickledData: "(dp1
S'org.pippin.gimp.org.kernagic'
p2
(dp3
S'lstem'
p4
I0
sS'rstem'
p5
I0
ssS'com.typemytype.robofont.layerData'
p6
(dp7
S'b'
(dp8
S'name'
p9
S'bullet'
p10
sS'lib'
p11
(dp12
sS'unicodes'
p13
(tsS'width'
p14
I908
sS'contours'
p15
(tsS'components'
p16
(tsS'anchors'
p17
(tsssS'org.robofab.postScriptHintData'
p18
(dp19
s."
LayerCount: 2
Fore
SplineSet
470 348 m 256
 673 348 828 503 828 699 c 256
 828 897 679 1046 476 1046 c 256
 274 1046 117 891 117 694 c 256
 117 498 265 348 470 348 c 256
EndSplineSet
EndChar

StartChar: c
Encoding: 67 99 166
Width: 1129
VWidth: 0
GlyphClass: 2
Flags: W
PickledData: "(dp1
S'org.pippin.gimp.org.kernagic'
p2
(dp3
S'lstem'
p4
I0
sS'rstem'
p5
I696
ssS'com.fontlab.hintData'
p6
(dp7
S'vhints'
p8
((dp9
S'position'
p10
I128
sS'width'
p11
I120
stp12
sS'hhints'
p13
((dp14
g10
I-19
sg11
I92
s(dp15
g10
I982
sg11
I92
stp16
ssS'com.typemytype.robofont.guides'
p17
((dp18
S'y'
I417
sS'x'
I962
sS'magnetic'
p19
I5
sS'angle'
p20
F90
sS'isGlobal'
p21
I00
s(dp22
S'y'
I1020
sS'x'
I565
sg19
I5
sg20
F90
sg21
I00
s(dp23
S'y'
I994
sS'x'
I572
sg19
I5
sg20
F90
sg21
I00
stp24
sS'com.typemytype.robofont.layerData'
p25
(dp26
sS'org.robofab.postScriptHintData'
p27
(dp28
s."
HStem: -19 92 982 92
VStem: 128 120
AnchorPoint: "top" 621 1082 basechar 0
LayerCount: 2
Fore
SplineSet
658 861 m 256
 743 861 819 807 844 723 c 257
 856 723 l 257
 1074 841 l 257
 993 1023 852 1102 643 1102 c 256
 297 1102 79 887 79 541 c 256
 79 195 297 -20 643 -20 c 256
 852 -20 993 59 1074 242 c 257
 856 359 l 257
 843 359 l 257
 819 275 744 222 660 222 c 258
 658 222 l 258
 546 222 437 316 437 541 c 256
 437 766 546 861 658 861 c 256
EndSplineSet
EndChar

StartChar: caron
Encoding: 399 711 168
Width: 959
VWidth: 0
GlyphClass: 4
Flags: W
PickledData: "(dp1
S'org.robofab.postScriptHintData'
p2
(dp3
sS'com.typemytype.robofont.layerData'
p4
(dp5
s."
AnchorPoint: "top" 468 1082 mark 0
LayerCount: 2
Fore
SplineSet
299 1277 m 257
 603 1277 l 257
 816 1673 l 257
 544 1673 l 257
 452 1465 l 257
 358 1673 l 257
 86 1673 l 257
 299 1277 l 257
EndSplineSet
EndChar

StartChar: caron.alt
Encoding: 65539 -1 169
Width: 612
VWidth: 0
GlyphClass: 4
Flags: W
PickledData: "(dp1
S'org.robofab.postScriptHintData'
p2
(dp3
sS'com.typemytype.robofont.layerData'
p4
(dp5
s."
AnchorPoint: "caron.alt" 21 1082 mark 0
LayerCount: 2
Fore
SplineSet
341 1119 m 257
 540 1119 l 257
 607 1558 l 257
 346 1558 l 257
 341 1119 l 257
EndSplineSet
EndChar

StartChar: cedilla
Encoding: 119 184 174
Width: 759
VWidth: 0
GlyphClass: 4
Flags: W
PickledData: "(dp1
S'org.robofab.postScriptHintData'
p2
(dp3
sS'com.typemytype.robofont.layerData'
p4
(dp5
s."
LayerCount: 2
Fore
SplineSet
449 -419 m 256
 590 -419 703 -341 703 -207 c 256
 703 -96 635 -36 536 -36 c 256
 500 -36 460 -44 418 -60 c 257
 418 -132 l 257
 430 -131 441 -130 451 -130 c 256
 513 -130 538 -156 538 -199 c 256
 537 -242 501 -281 426 -281 c 256
 397 -281 362 -275 321 -261 c 257
 278 -383 l 257
 335 -407 394 -419 449 -419 c 256
EndSplineSet
EndChar

StartChar: cent
Encoding: 97 162 175
Width: 1129
VWidth: 0
GlyphClass: 2
Flags: W
PickledData: "(dp1
S'org.pippin.gimp.org.kernagic'
p2
(dp3
S'lstem'
p4
I0
sS'rstem'
p5
I0
ssS'com.typemytype.robofont.layerData'
p6
(dp7
sS'org.robofab.postScriptHintData'
p8
(dp9
s."
LayerCount: 2
Fore
SplineSet
563 56 m 257
 554 -297 l 257
 690 -297 l 257
 693 56 l 257
 563 56 l 257
565 1363 m 257
 564 1035 l 257
 694 1035 l 257
 712 1363 l 257
 565 1363 l 257
EndSplineSet
Refer: 166 99 N 1 0 0 1 0 0 2
EndChar

StartChar: circumflex
Encoding: 398 710 176
Width: 932
VWidth: 0
GlyphClass: 4
Flags: W
PickledData: "(dp1
S'org.robofab.postScriptHintData'
p2
(dp3
sS'com.typemytype.robofont.layerData'
p4
(dp5
s."
AnchorPoint: "top" 448 1082 mark 0
LayerCount: 2
Fore
SplineSet
84 1306 m 257
 356 1306 l 257
 449 1514 l 257
 542 1306 l 257
 814 1306 l 257
 601 1702 l 257
 297 1702 l 257
 84 1306 l 257
EndSplineSet
EndChar

StartChar: colon
Encoding: 26 58 177
Width: 707
VWidth: 0
GlyphClass: 2
Flags: W
PickledData: "(dp1
S'org.pippin.gimp.org.kernagic'
p2
(dp3
S'lstem'
p4
I0
sS'rstem'
p5
I0
ssS'com.typemytype.robofont.layerData'
p6
(dp7
S'b'
(dp8
S'name'
p9
S'colon'
p10
sS'lib'
p11
(dp12
sS'unicodes'
p13
(tsS'width'
p14
I653
sS'contours'
p15
(tsS'components'
p16
(tsS'anchors'
p17
(tsssS'org.robofab.postScriptHintData'
p18
(dp19
s."
LayerCount: 2
Fore
SplineSet
361 -6 m 256
 456 -6 533 47 533 155 c 256
 533 267 456 323 361 323 c 256
 267 323 188 267 188 155 c 256
 188 45 268 -6 361 -6 c 256
361 787 m 256
 456 787 533 840 533 948 c 256
 533 1060 456 1116 361 1116 c 256
 267 1116 188 1060 188 948 c 256
 188 838 268 787 361 787 c 256
EndSplineSet
EndChar

StartChar: comma
Encoding: 12 44 178
Width: 680
VWidth: 0
GlyphClass: 2
Flags: W
PickledData: "(dp1
S'org.pippin.gimp.org.kernagic'
p2
(dp3
S'lstem'
p4
I0
sS'rstem'
p5
I0
ssS'com.typemytype.robofont.layerData'
p6
(dp7
sS'org.robofab.postScriptHintData'
p8
(dp9
s."
LayerCount: 2
Fore
SplineSet
185 -350 m 257
 395 -350 l 257
 518 104 l 257
 518 281 l 257
 221 281 l 257
 221 218 185 -350 185 -350 c 257
EndSplineSet
EndChar

StartChar: uni0326
Encoding: 411 806 179
Width: 623
VWidth: 0
Flags: W
PickledData: "(dp1
S'org.robofab.postScriptHintData'
p2
(dp3
s."
LayerCount: 2
Fore
SplineSet
126 -553 m 257
 346 -553 l 257
 346 -553 489 -105 489 -101 c 257
 210 -101 l 257
 210 -108 126 -553 126 -553 c 257
EndSplineSet
EndChar

StartChar: uni0312
Encoding: 410 786 180
Width: 600
VWidth: 0
Flags: W
PickledData: "(dp1
S'org.robofab.postScriptHintData'
p2
(dp3
s."
AnchorPoint: "top" 289 1081 mark 0
LayerCount: 2
Fore
SplineSet
147 1290 m 257
 138 1274 l 257
 435 1274 l 257
 435 1280 499 1790 499 1790 c 257
 286 1790 l 257
 286 1790 147 1319 147 1290 c 257
EndSplineSet
EndChar

StartChar: copyright
Encoding: 104 169 181
Width: 1792
VWidth: 0
GlyphClass: 2
Flags: W
PickledData: "(dp1
S'org.pippin.gimp.org.kernagic'
p2
(dp3
S'lstem'
p4
I0
sS'rstem'
p5
I0
ssS'com.typemytype.robofont.layerData'
p6
(dp7
sS'org.robofab.postScriptHintData'
p8
(dp9
s."
LayerCount: 2
Fore
SplineSet
888 -55 m 256
 1321 -55 1674 286 1674 729 c 256
 1674 1171 1321 1511 888 1511 c 256
 455 1511 103 1171 103 729 c 256
 103 286 455 -55 888 -55 c 256
888 103 m 256
 550 103 276 377 276 729 c 256
 276 1080 550 1353 888 1353 c 256
 1226 1353 1500 1080 1500 729 c 256
 1500 377 1226 103 888 103 c 256
910 251 m 256
 1010 251 1109 278 1194 331 c 257
 1146 458 l 257
 1071 418 995 398 924 398 c 256
 758 398 625 509 625 738 c 256
 625 966 757 1078 923 1078 c 256
 993 1078 1071 1057 1145 1017 c 257
 1193 1144 l 257
 1109 1197 1009 1224 909 1224 c 256
 668 1224 433 1063 433 738 c 256
 433 412 668 251 910 251 c 256
EndSplineSet
EndChar

StartChar: currency
Encoding: 99 164 182
Width: 1110
VWidth: 0
GlyphClass: 2
Flags: W
PickledData: "(dp1
S'org.pippin.gimp.org.kernagic'
p2
(dp3
S'lstem'
p4
I0
sS'rstem'
p5
I0
ssS'com.typemytype.robofont.layerData'
p6
(dp7
S'b'
(dp8
S'name'
p9
S'currency'
p10
sS'lib'
p11
(dp12
sS'unicodes'
p13
(tsS'width'
p14
I1164
sS'contours'
p15
(tsS'components'
p16
(tsS'anchors'
p17
(tsssS'org.robofab.postScriptHintData'
p18
(dp19
s."
LayerCount: 2
Fore
SplineSet
818 746 m 256
 818 598 703 484 561 484 c 256
 425 484 309 599 309 746 c 256
 309 892 425 1010 561 1010 c 256
 700 1010 818 892 818 746 c 256
799 1092 m 257
 730 1146 652 1173 561 1173 c 256
 474 1173 389 1140 323 1093 c 257
 147 1266 l 257
 36 1155 l 257
 216 978 l 257
 174 908 148 831 148 746 c 256
 148 660 175 579 216 513 c 257
 37 337 l 257
 147 230 l 257
 320 400 l 257
 388 348 472 321 561 321 c 256
 651 321 732 352 799 403 c 257
 980 229 l 257
 1084 340 l 257
 908 513 l 257
 952 582 975 660 975 746 c 256
 975 833 948 912 907 978 c 257
 1085 1154 l 257
 980 1266 l 257
 799 1092 l 257
EndSplineSet
EndChar

StartChar: d
Encoding: 68 100 183
Width: 1268
VWidth: 0
GlyphClass: 2
Flags: W
PickledData: "(dp1
S'org.pippin.gimp.org.kernagic'
p2
(dp3
S'lstem'
p4
I0
sS'rstem'
p5
I0
ssS'com.typemytype.robofont.layerData'
p6
(dp7
sS'com.fontlab.hintData'
p8
(dp9
S'vhints'
p10
((dp11
S'position'
p12
I114
sS'width'
p13
I166
s(dp14
g12
I907
sg13
I161
s(dp15
g12
I930
sg13
I138
stp16
sS'hhints'
p17
((dp18
g12
I-19
sg13
I127
s(dp19
g12
I953
sg13
I127
stp20
ssS'org.robofab.postScriptHintData'
p21
(dp22
s."
HStem: -19 127 953 127
VStem: 114 166 907 161 930 138
AnchorPoint: "caron.alt" 1004 1093 basechar 0
AnchorPoint: "top" 458 1082 basechar 0
LayerCount: 2
Fore
SplineSet
606 210 m 256
 518 210 442 275 442 533 c 256
 442 820 532 875 619 875 c 256
 704 875 752 836 786 793 c 257
 786 307 l 257
 751 247 686 210 606 210 c 256
787 1540 m 257
 787 1138 l 257
 791 978 l 257
 741 1043 656 1102 524 1102 c 256
 227 1102 83 867 83 533 c 256
 83 220 226 -20 516 -20 c 256
 672 -20 765 61 814 166 c 257
 822 0 l 257
 1141 0 l 257
 1141 1560 l 257
 787 1540 l 257
EndSplineSet
EndChar

StartChar: dagger
Encoding: 452 8224 184
Width: 1160
VWidth: 0
GlyphClass: 2
Flags: W
PickledData: "(dp1
S'org.pippin.gimp.org.kernagic'
p2
(dp3
S'lstem'
p4
I0
sS'rstem'
p5
I0
ssS'com.typemytype.robofont.layerData'
p6
(dp7
S'b'
(dp8
S'name'
p9
S'dagger'
p10
sS'lib'
p11
(dp12
sS'unicodes'
p13
(tsS'width'
p14
I1050
sS'contours'
p15
(tsS'components'
p16
(tsS'anchors'
p17
(tsssS'org.robofab.postScriptHintData'
p18
(dp19
s."
LayerCount: 2
Fore
SplineSet
415 1459 m 257
 415 1084 l 257
 108 1084 l 257
 108 876 l 257
 415 876 l 257
 415 -109 l 257
 737 -109 l 257
 737 876 l 257
 1065 876 l 257
 1065 1084 l 257
 745 1084 l 257
 745 1459 l 257
 415 1459 l 257
EndSplineSet
EndChar

StartChar: daggerdbl
Encoding: 453 8225 185
Width: 1132
VWidth: 0
GlyphClass: 2
Flags: W
PickledData: "(dp1
S'org.pippin.gimp.org.kernagic'
p2
(dp3
S'lstem'
p4
I0
sS'rstem'
p5
I0
ssS'com.typemytype.robofont.layerData'
p6
(dp7
S'b'
(dp8
S'name'
p9
S'daggerdbl'
p10
sS'lib'
p11
(dp12
sS'unicodes'
p13
(tsS'width'
p14
I1022
sS'contours'
p15
(tsS'components'
p16
(tsS'anchors'
p17
(tsssS'org.robofab.postScriptHintData'
p18
(dp19
s."
LayerCount: 2
Fore
SplineSet
414 1458 m 257
 414 1083 l 257
 109 1083 l 257
 109 875 l 257
 414 875 l 257
 414 570 l 257
 109 570 l 257
 109 362 l 257
 414 362 l 257
 414 -157 l 257
 737 -157 l 257
 737 362 l 257
 1063 362 l 257
 1063 570 l 257
 745 570 l 257
 745 875 l 257
 1063 875 l 257
 1063 1083 l 257
 745 1083 l 257
 745 1458 l 257
 414 1458 l 257
EndSplineSet
EndChar

StartChar: uni030F
Encoding: 408 783 186
Width: 1107
VWidth: 0
Flags: W
PickledData: "(dp1
S'org.robofab.postScriptHintData'
p2
(dp3
sS'com.typemytype.robofont.layerData'
p4
(dp5
s."
AnchorPoint: "top" 579 1081 mark 0
LayerCount: 2
Fore
SplineSet
687 1259 m 257
 860 1259 l 257
 703 1663 l 257
 431 1663 l 257
 687 1259 l 257
320 1259 m 257
 482 1259 l 257
 337 1663 l 257
 40 1663 l 257
 320 1259 l 257
EndSplineSet
EndChar

StartChar: degree
Encoding: 111 176 189
Width: 828
VWidth: 0
GlyphClass: 2
Flags: W
PickledData: "(dp1
S'org.pippin.gimp.org.kernagic'
p2
(dp3
S'lstem'
p4
I0
sS'rstem'
p5
I0
ssS'com.typemytype.robofont.layerData'
p6
(dp7
sS'org.robofab.postScriptHintData'
p8
(dp9
s."
LayerCount: 2
Fore
SplineSet
423 901 m 256
 627 901 738 1055 738 1212 c 256
 738 1374 623 1513 423 1513 c 256
 219 1513 106 1374 106 1212 c 256
 106 1053 215 901 423 901 c 256
423 1057 m 256
 347 1057 278 1111 278 1211 c 256
 278 1307 347 1361 424 1361 c 256
 495 1361 565 1307 565 1211 c 256
 565 1110 497 1057 423 1057 c 256
EndSplineSet
EndChar

StartChar: dieresis
Encoding: 103 168 190
Width: 1104
VWidth: 0
GlyphClass: 4
Flags: W
PickledData: "(dp1
S'org.robofab.postScriptHintData'
p2
(dp3
sS'com.typemytype.robofont.layerData'
p4
(dp5
s."
AnchorPoint: "top" 546 1082 mark 0
LayerCount: 2
Fore
SplineSet
802 1223 m 256
 900 1223 959 1284 959 1382 c 256
 959 1481 900 1543 802 1543 c 256
 704 1543 642 1481 642 1382 c 256
 642 1284 704 1223 802 1223 c 256
284 1223 m 256
 380 1223 440 1284 440 1382 c 256
 440 1481 380 1543 284 1543 c 256
 185 1543 125 1481 125 1382 c 256
 125 1284 185 1223 284 1223 c 256
EndSplineSet
EndChar

StartChar: divide
Encoding: 182 247 191
Width: 1274
VWidth: 0
GlyphClass: 2
Flags: W
PickledData: "(dp1
S'org.pippin.gimp.org.kernagic'
p2
(dp3
S'lstem'
p4
I0
sS'rstem'
p5
I0
ssS'com.typemytype.robofont.layerData'
p6
(dp7
sS'org.robofab.postScriptHintData'
p8
(dp9
s."
LayerCount: 2
Fore
SplineSet
479 1167 m 257
 479 885 l 257
 779 885 l 257
 779 1167 l 257
 479 1167 l 257
479 315 m 257
 479 18 l 257
 770 18 l 257
 770 315 l 257
 479 315 l 257
82 703 m 257
 82 490 l 257
 1166 490 l 257
 1166 703 l 257
 82 703 l 257
EndSplineSet
EndChar

StartChar: dollar
Encoding: 4 36 192
Width: 1228
VWidth: 0
GlyphClass: 2
Flags: W
PickledData: "(dp1
S'org.pippin.gimp.org.kernagic'
p2
(dp3
S'lstem'
p4
I0
sS'rstem'
p5
I0
ssS'com.typemytype.robofont.layerData'
p6
(dp7
S'b'
(dp8
S'name'
p9
S'dollar'
p10
sS'lib'
p11
(dp12
sS'unicodes'
p13
(tsS'width'
p14
I1221
sS'contours'
p15
(tsS'components'
p16
(tsS'anchors'
p17
(tsssS'org.robofab.postScriptHintData'
p18
(dp19
s."
LayerCount: 2
Fore
SplineSet
538 58 m 257
 538 -280 l 257
 710 -280 l 257
 698 58 l 257
 538 58 l 257
526 1771 m 257
 528 1435 l 257
 690 1435 l 257
 690 1771 l 257
 526 1771 l 257
EndSplineSet
Refer: 94 83 N 1 0 0 1 0 0 2
EndChar

StartChar: dotaccent
Encoding: 402 729 193
Width: 637
VWidth: 0
GlyphClass: 4
Flags: W
PickledData: "(dp1
S'org.robofab.postScriptHintData'
p2
(dp3
sS'com.typemytype.robofont.layerData'
p4
(dp5
s."
AnchorPoint: "top" 320 1082 mark 0
LayerCount: 2
Fore
SplineSet
524 1459 m 256
 524 1570 446 1644 322 1644 c 256
 198 1644 120 1570 120 1459 c 256
 120 1343 198 1267 322 1267 c 256
 446 1267 524 1343 524 1459 c 256
EndSplineSet
EndChar

StartChar: dotlessi
Encoding: 240 305 194
Width: 615
VWidth: 0
GlyphClass: 2
Flags: W
PickledData: "(dp1
S'org.pippin.gimp.org.kernagic'
p2
(dp3
S'lstem'
p4
I0
sS'rstem'
p5
I0
ssS'com.typemytype.robofont.layerData'
p6
(dp7
sS'org.robofab.postScriptHintData'
p8
(dp9
s."
AnchorPoint: "top" 317 1082 basechar 0
LayerCount: 2
Fore
SplineSet
133 1082 m 257
 133 0 l 257
 493 0 l 257
 493 1082 l 257
 133 1082 l 257
EndSplineSet
EndChar

StartChar: uni0237
Encoding: 396 567 195
Width: 706
VWidth: 0
GlyphClass: 2
Flags: W
PickledData: "(dp1
S'org.pippin.gimp.org.kernagic'
p2
(dp3
S'lstem'
p4
I0
sS'rstem'
p5
I0
ssS'com.typemytype.robofont.layerData'
p6
(dp7
sS'com.fontlab.hintData'
p8
(dp9
S'vhints'
p10
((dp11
S'position'
p12
I111
sS'width'
p13
I142
stp14
sS'hhints'
p15
((dp16
g12
I-479
sg13
I112
stp17
ssS'org.robofab.postScriptHintData'
p18
(dp19
s."
HStem: -479 112
VStem: 111 142
LayerCount: 2
Fore
SplineSet
194 1082 m 257
 194 2 l 258
 194 -148 173 -190 4 -266 c 258
 -89 -308 l 257
 37 -567 l 257
 127 -527 l 258
 393 -408 554 -337 554 -31 c 258
 554 1082 l 257
 194 1082 l 257
EndSplineSet
EndChar

StartChar: e
Encoding: 69 101 196
Width: 1199
VWidth: 0
GlyphClass: 2
Flags: HW
PickledData: "(dp1
S'org.pippin.gimp.org.kernagic'
p2
(dp3
S'lstem'
p4
I0
sS'rstem'
p5
I747
ssS'com.typemytype.robofont.layerData'
p6
(dp7
sS'com.fontlab.hintData'
p8
(dp9
S'hhints'
p10
((dp11
S'position'
p12
I-19
sS'width'
p13
I94
s(dp14
g12
I982
sg13
I92
stp15
ssS'org.robofab.postScriptHintData'
p16
(dp17
s."
HStem: -19 94 982 92
AnchorPoint: "top" 628 1082 basechar 0
LayerCount: 2
Fore
SplineSet
441 624 m 257
 449.057072988 805.28414224 528.259839922 877 642 877 c 256
 750 877 806 802 806 624 c 257
 441 624 l 257
662 -20 m 256
 845 -20 1008 35 1092 114 c 257
 1015 297 l 257
 998 297 l 257
 914 244 813 208 702 208 c 256
 559 208 454 287 438 434 c 257
 1093 434 l 257
 1093 434 1106 491 1106 577 c 256
 1097 884 968 1102 624 1102 c 256
 292 1102 79 887 79 542 c 256
 79 196 306 -20 662 -20 c 256
EndSplineSet
EndChar

StartChar: eight
Encoding: 24 56 204
Width: 1378
VWidth: 0
GlyphClass: 2
Flags: W
PickledData: "(dp1
S'org.pippin.gimp.org.kernagic'
p2
(dp3
S'lstem'
p4
I0
sS'rstem'
p5
I0
ssS'com.typemytype.robofont.layerData'
p6
(dp7
sS'org.robofab.postScriptHintData'
p8
(dp9
s."
LayerCount: 2
Fore
SplineSet
694 837 m 257
 587 883 520 979 520 1092 c 256
 520 1193 589 1255 694 1255 c 256
 798 1255 861 1194 861 1092 c 256
 861 980 800 883 694 837 c 257
694 206 m 256
 575 206 521 270 521 404 c 256
 521 544 591 652 694 686 c 257
 796 652 862 544 862 405 c 256
 862 270 814 206 694 206 c 256
694 -20 m 256
 1041 -20 1241 131 1241 391 c 256
 1241 586 1155 723 1009 779 c 257
 1139 830 1216 937 1216 1111 c 256
 1216 1350 993 1476 691 1476 c 256
 391 1476 164 1350 164 1111 c 256
 164 931 249 825 384 779 c 257
 231 724 137 583 137 391 c 256
 137 131 344 -20 694 -20 c 256
EndSplineSet
EndChar

StartChar: emdash
Encoding: 445 8212 207
Width: 2240
VWidth: 0
GlyphClass: 2
Flags: W
PickledData: "(dp1
S'org.robofab.postScriptHintData'
p2
(dp3
sS'com.typemytype.robofont.layerData'
p4
(dp5
s."
LayerCount: 2
Fore
SplineSet
60 450 m 257
 2180 450 l 257
 2180 660 l 257
 60 660 l 257
 60 450 l 257
EndSplineSet
EndChar

StartChar: endash
Encoding: 444 8211 208
Width: 1171
VWidth: 0
GlyphClass: 2
Flags: W
PickledData: "(dp1
S'org.pippin.gimp.org.kernagic'
p2
(dp3
S'lstem'
p4
I0
sS'rstem'
p5
I0
ssS'com.typemytype.robofont.layerData'
p6
(dp7
sS'org.robofab.postScriptHintData'
p8
(dp9
s."
LayerCount: 2
Fore
SplineSet
137 440 m 257
 1034 440 l 257
 1034 666 l 257
 137 666 l 257
 137 440 l 257
EndSplineSet
EndChar

StartChar: eng
Encoding: 266 331 209
Width: 1244
VWidth: 0
GlyphClass: 2
Flags: W
PickledData: "(dp1
S'org.robofab.postScriptHintData'
p2
(dp3
sS'com.typemytype.robofont.layerData'
p4
(dp5
s."
LayerCount: 2
Fore
SplineSet
789 182 m 257
 789 -18 l 258
 789 -248 756 -280 532 -280 c 257
 557 -505 l 257
 1018 -488 1150 -362 1150 -58 c 258
 1150 182 l 257
 789 182 l 257
EndSplineSet
Refer: 277 110 N 1 0 0 1 0 0 2
EndChar

StartChar: equal
Encoding: 29 61 211
Width: 1269
VWidth: 0
GlyphClass: 2
Flags: W
PickledData: "(dp1
S'org.pippin.gimp.org.kernagic'
p2
(dp3
S'lstem'
p4
I0
sS'rstem'
p5
I0
ssS'com.typemytype.robofont.layerData'
p6
(dp7
S'b'
(dp8
S'name'
p9
S'equal'
p10
sS'lib'
p11
(dp12
sS'unicodes'
p13
(tsS'width'
p14
I1050
sS'contours'
p15
(tsS'components'
p16
(tsS'anchors'
p17
(tsssS'org.robofab.postScriptHintData'
p18
(dp19
s."
LayerCount: 2
Fore
SplineSet
94 709 m 257
 94 489 l 257
 1149 489 l 257
 1149 709 l 257
 94 709 l 257
94 1141 m 257
 94 921 l 257
 1149 921 l 257
 1149 1141 l 257
 94 1141 l 257
EndSplineSet
EndChar

StartChar: estimated
Encoding: 465 8494 212
Width: 1163
VWidth: 0
GlyphClass: 2
Flags: W
PickledData: "(dp1
S'org.robofab.postScriptHintData'
p2
(dp3
sS'com.typemytype.robofont.layerData'
p4
(dp5
S'b'
(dp6
S'name'
p7
S'estimated'
p8
sS'lib'
p9
(dp10
sS'unicodes'
p11
(tsS'width'
p12
I1223
sS'contours'
p13
(tsS'components'
p14
(tsS'anchors'
p15
(tsss."
LayerCount: 2
Fore
SplineSet
909 587 m 257
 327 587 l 257
 344 842 445 1011 614 1011 c 256
 819 1011 909 817 909 587 c 257
68 527 m 256
 68 216 253 -20 624 -20 c 256
 827 -20 958 66 1057 184 c 257
 1006 234 l 257
 910 130 802 53 624 53 c 256
 400 53 328 238 327 507 c 257
 1065 507 l 257
 1065 846 920 1071 608 1071 c 256
 293 1071 68 840 68 527 c 256
EndSplineSet
EndChar

StartChar: eth
Encoding: 175 240 213
Width: 1165
VWidth: 0
GlyphClass: 2
Flags: W
PickledData: "(dp1
S'org.pippin.gimp.org.kernagic'
p2
(dp3
S'lstem'
p4
I0
sS'rstem'
p5
I0
ssS'com.typemytype.robofont.layerData'
p6
(dp7
sS'org.robofab.postScriptHintData'
p8
(dp9
s."
LayerCount: 2
Fore
SplineSet
870 471 m 256
 870 307 771 200 599 200 c 256
 423 200 320 314 320 477 c 256
 320 647 415 750 593 750 c 256
 768 750 870 639 870 471 c 256
159 1489 m 257
 361 1284 l 257
 194 1213 l 257
 263 1021 l 257
 503 1117 l 257
 527 1092 629 982 670 933 c 257
 636 941 574 949 543 949 c 256
 251 949 57 759 57 474 c 256
 57 178 278 -24 593 -24 c 256
 911 -24 1120 153 1120 465 c 256
 1118 613 1078 743 1016 847 c 256
 937 980 828 1094 726 1215 c 257
 923 1297 l 257
 853 1494 l 257
 590 1384 l 257
 487 1489 l 257
 159 1489 l 257
EndSplineSet
EndChar

StartChar: exclam
Encoding: 1 33 214
Width: 764
VWidth: 0
GlyphClass: 2
Flags: W
PickledData: "(dp1
S'org.pippin.gimp.org.kernagic'
p2
(dp3
S'lstem'
p4
I0
sS'rstem'
p5
I0
ssS'com.typemytype.robofont.layerData'
p6
(dp7
sS'org.robofab.postScriptHintData'
p8
(dp9
s."
LayerCount: 2
Fore
SplineSet
378 -8 m 256
 469 -8 539 70 539 159 c 256
 539 251 469 324 378 324 c 256
 286 324 214 251 214 159 c 256
 214 70 286 -8 378 -8 c 256
323 468 m 257
 450 468 l 257
 513 1319 l 257
 513 1565 l 257
 251 1565 l 257
 251 1319 l 257
 323 468 l 257
EndSplineSet
EndChar

StartChar: f
Encoding: 70 102 216
Width: 841
VWidth: 0
GlyphClass: 2
Flags: W
PickledData: "(dp1
S'org.pippin.gimp.org.kernagic'
p2
(dp3
S'lstem'
p4
I182
sS'rstem'
p5
I417
ssS'com.typemytype.robofont.layerData'
p6
(dp7
sS'com.fontlab.hintData'
p8
(dp9
S'vhints'
p10
((dp11
S'position'
p12
I269
sS'width'
p13
I166
stp14
sS'hhints'
p15
((dp16
g12
I952
sg13
I89
s(dp17
g12
I1358
sg13
I122
stp18
ssS'org.robofab.postScriptHintData'
p19
(dp20
s."
HStem: 952 89 1358 122
VStem: 269 166
AnchorPoint: "top" 464 1456 basechar 0
LayerCount: 2
Fore
SplineSet
577 1521 m 256
 363 1521 181 1444 181 1158 c 258
 181 1077 l 257
 40 1055 l 257
 35 878 l 257
 181 878 l 257
 181 0 l 257
 541 0 l 257
 541 878 l 257
 805 878 l 257
 805 1082 l 257
 541 1082 l 257
 541 1158 l 258
 541 1255 598 1289 701 1289 c 256
 736 1289 772 1286 837 1278 c 257
 847 1491 l 257
 818 1498 732 1521 577 1521 c 256
EndSplineSet
EndChar

StartChar: five
Encoding: 21 53 217
Width: 1378
VWidth: 0
GlyphClass: 2
Flags: W
PickledData: "(dp1
S'org.pippin.gimp.org.kernagic'
p2
(dp3
S'lstem'
p4
I0
sS'rstem'
p5
I0
ssS'com.typemytype.robofont.layerData'
p6
(dp7
sS'org.robofab.postScriptHintData'
p8
(dp9
s."
LayerCount: 2
Fore
SplineSet
687 723 m 256
 810 722 879 615 879 502 c 256
 879 344 805 249 653 249 c 256
 552 249 424 287 361 397 c 257
 341 397 l 257
 168 209 l 257
 272 55 431 -20 694 -20 c 256
 1029 -20 1213 209 1213 485 c 256
 1213 713 1075 958 749 958 c 256
 648 958 580 933 524 885 c 257
 567 1216 l 257
 1112 1216 l 257
 1146 1456 l 257
 289 1456 l 257
 226 643 l 257
 487 600 l 257
 509 684 572 723 687 723 c 256
EndSplineSet
EndChar

StartChar: florin
Encoding: 318 402 219
Width: 1205
VWidth: 0
GlyphClass: 2
Flags: W
PickledData: "(dp1
S'org.robofab.postScriptHintData'
p2
(dp3
s."
LayerCount: 2
Fore
SplineSet
443 1274 m 258
 404 1022 l 257
 179 1022 l 257
 163 950 l 257
 393 950 l 257
 264 102 l 257
 224 -172 196 -255 57 -255 c 256
 14 -255 -40 -247 -109 -234 c 257
 -140 -353 l 257
 -38 -391 52 -411 131 -411 c 256
 351 -411 486 -255 549 113 c 257
 680 950 l 257
 1007 950 l 257
 1022 1022 l 257
 696 1022 l 257
 748 1327 l 258
 776 1487 849 1544 959 1544 c 256
 1088 1544 1116 1445 1133 1308 c 257
 1288 1308 l 257
 1278 1562 1178 1730 925 1730 c 256
 662 1730 491 1580 443 1274 c 258
EndSplineSet
EndChar

StartChar: foundryicon
Encoding: 488 -1 220
Width: 1347
VWidth: 0
GlyphClass: 2
Flags: W
PickledData: "(dp1
S'org.robofab.postScriptHintData'
p2
(dp3
s."
LayerCount: 2
Fore
SplineSet
280 2 m 257
 669 278 l 257
 1066 2 l 257
 922 461 l 257
 1313 755 l 257
 828 755 l 257
 669 1215 l 257
 519 755 l 257
 34 755 l 257
 423 461 l 257
 280 2 l 257
485 405 m 257
 485 672 l 257
 591 672 l 257
 761 523 l 257
 761 672 l 257
 867 672 l 257
 867 405 l 257
 761 405 l 257
 591 552 l 257
 591 405 l 257
 485 405 l 257
EndSplineSet
EndChar

StartChar: four
Encoding: 20 52 221
Width: 1378
VWidth: 0
GlyphClass: 2
Flags: W
PickledData: "(dp1
S'org.pippin.gimp.org.kernagic'
p2
(dp3
S'lstem'
p4
I0
sS'rstem'
p5
I0
ssS'com.typemytype.robofont.layerData'
p6
(dp7
sS'org.robofab.postScriptHintData'
p8
(dp9
s."
LayerCount: 2
Fore
SplineSet
369 557 m 257
 698 1113 l 257
 698 557 l 257
 369 557 l 257
699 0 m 257
 1078 0 l 257
 1078 325 l 257
 1279 325 l 257
 1295 563 l 257
 1078 563 l 257
 1078 1456 l 257
 636 1456 l 257
 92 543 l 257
 111 325 l 257
 699 325 l 257
 699 0 l 257
EndSplineSet
EndChar

StartChar: fraction
Encoding: 459 8260 222
Width: 1179
VWidth: 0
GlyphClass: 2
Flags: W
PickledData: "(dp1
S'org.robofab.postScriptHintData'
p2
(dp3
s."
LayerCount: 2
Fore
SplineSet
45 0 m 257
 263 0 l 257
 1292 1573 l 257
 1088 1573 l 257
 45 0 l 257
EndSplineSet
EndChar

StartChar: g
Encoding: 71 103 223
Width: 1257
VWidth: 0
GlyphClass: 2
Flags: W
PickledData: "(dp1
S'org.pippin.gimp.org.kernagic'
p2
(dp3
S'lstem'
p4
I0
sS'rstem'
p5
I0
ssS'com.typemytype.robofont.layerData'
p6
(dp7
sS'com.fontlab.hintData'
p8
(dp9
S'vhints'
p10
((dp11
S'position'
p12
I128
sS'width'
p13
I122
s(dp14
g12
I977
sg13
I125
s(dp15
g12
I977
sg13
I36
stp16
sS'hhints'
p17
((dp18
g12
I-426
sg13
I101
s(dp19
g12
I0
sg13
I93
s(dp20
g12
I982
sg13
I92
stp21
ssS'org.robofab.postScriptHintData'
p22
(dp23
s."
HStem: -426 101 0 93 982 92
VStem: 128 122 977 125 977 36
AnchorPoint: "top" 580 1082 basechar 0
LayerCount: 2
Fore
SplineSet
615 208 m 256
 509 208 439 311 439 562 c 256
 439 832 545 873 621 873 c 256
 707 873 740 845 784 800 c 257
 784 267 l 257
 745 232 677 208 615 208 c 256
813 -26 m 256
 813 -215 687 -283 515 -283 c 256
 434 -283 340 -266 248 -238 c 257
 219 -238 l 257
 194 -466 l 257
 311 -499 442 -512 584 -512 c 256
 886 -512 1137 -365 1137 -13 c 258
 1137 1082 l 257
 787 1082 l 257
 786 991 l 257
 737 1049 658 1102 532 1102 c 256
 321 1102 79 953 79 563 c 256
 79 93 330 -2 520 -2 c 256
 670 -2 754 48 801 100 c 257
 810 23 l 258
 812 6 813 -10 813 -26 c 256
EndSplineSet
EndChar

StartChar: germandbls
Encoding: 158 223 229
Width: 1338
VWidth: 0
GlyphClass: 2
Flags: W
PickledData: "(dp1
S'org.pippin.gimp.org.kernagic'
p2
(dp3
S'lstem'
p4
I0
sS'rstem'
p5
I0
ssS'com.typemytype.robofont.layerData'
p6
(dp7
S'b'
(dp8
S'name'
p9
S'germandbls'
p10
sS'lib'
p11
(dp12
sS'unicodes'
p13
(tsS'width'
p14
I1278
sS'contours'
p15
(tsS'components'
p16
(tsS'anchors'
p17
(tsssS'org.robofab.postScriptHintData'
p18
(dp19
s."
LayerCount: 2
Fore
SplineSet
912 -20 m 256
 1180 -20 1303 106 1303 327 c 256
 1303 648 925 707 925 759 c 256
 925 805 1142 878 1142 1109 c 256
 1142 1354 921 1471 646 1471 c 256
 343 1471 120 1291 120 995 c 258
 120 -1 l 257
 481 -1 l 257
 481 954 l 258
 481 1119 533 1223 668 1223 c 256
 753 1223 812 1193 812 1107 c 256
 812 942 644 902 644 728 c 256
 644 536 921 520 921 335 c 256
 921 254 873 222 803 222 c 256
 741 222 666 248 630 268 c 257
 565 51 l 257
 692 1 816 -20 912 -20 c 256
EndSplineSet
EndChar

StartChar: grave
Encoding: 64 96 230
Width: 1078
VWidth: 0
GlyphClass: 4
Flags: W
PickledData: "(dp1
S'org.robofab.postScriptHintData'
p2
(dp3
sS'com.typemytype.robofont.layerData'
p4
(dp5
s."
AnchorPoint: "top" 559 1081 mark 0
LayerCount: 2
Fore
SplineSet
423 1207 m 257
 621 1207 l 257
 447 1614 l 257
 83 1614 l 257
 423 1207 l 257
EndSplineSet
EndChar

StartChar: greater
Encoding: 30 62 231
Width: 1107
VWidth: 0
GlyphClass: 2
Flags: W
PickledData: "(dp1
S'org.pippin.gimp.org.kernagic'
p2
(dp3
S'lstem'
p4
I0
sS'rstem'
p5
I0
ssS'com.typemytype.robofont.layerData'
p6
(dp7
S'b'
(dp8
S'name'
p9
S'greater'
p10
sS'lib'
p11
(dp12
sS'unicodes'
p13
(tsS'width'
p14
I1107
sS'contours'
p15
(tsS'components'
p16
(tsS'anchors'
p17
(tsssS'org.robofab.postScriptHintData'
p18
(dp19
s."
LayerCount: 2
Fore
SplineSet
84 1045 m 257
 691 729 l 257
 84 442 l 257
 84 188 l 257
 1029 652 l 257
 1029 792 l 257
 84 1289 l 257
 84 1045 l 257
EndSplineSet
EndChar

StartChar: greaterequal
Encoding: 480 8805 232
Width: 1192
VWidth: 0
GlyphClass: 2
Flags: W
PickledData: "(dp1
S'org.pippin.gimp.org.kernagic'
p2
(dp3
S'lstem'
p4
I0
sS'rstem'
p5
I0
ssS'com.typemytype.robofont.layerData'
p6
(dp7
S'b'
(dp8
S'name'
p9
S'greaterequal'
p10
sS'lib'
p11
(dp12
sS'unicodes'
p13
(tsS'width'
p14
I1192
sS'contours'
p15
(tsS'components'
p16
(tsS'anchors'
p17
(tsssS'org.robofab.postScriptHintData'
p18
(dp19
s."
LayerCount: 2
Fore
SplineSet
137 3 m 257
 1069 3 l 257
 1069 180 l 257
 137 181 l 257
 137 3 l 257
142 215 m 257
 1066 690 l 257
 1066 819 l 257
 143 1304 l 257
 143 1080 l 257
 831 754 l 257
 142 445 l 257
 142 215 l 257
EndSplineSet
EndChar

StartChar: guillemotleft
Encoding: 106 171 233
Width: 1048
VWidth: 0
GlyphClass: 2
Flags: W
PickledData: "(dp1
S'org.pippin.gimp.org.kernagic'
p2
(dp3
S'lstem'
p4
I0
sS'rstem'
p5
I0
ssS'com.typemytype.robofont.layerData'
p6
(dp7
S'b'
(dp8
S'name'
p9
S'guillemotleft'
p10
sS'lib'
p11
(dp12
sS'unicodes'
p13
(tsS'width'
p14
I994
sS'contours'
p15
(tsS'components'
p16
(tsS'anchors'
p17
(tsssS'org.robofab.postScriptHintData'
p18
(dp19
s."
LayerCount: 2
Fore
SplineSet
788 129 m 257
 976 129 l 257
 728 575 l 257
 980 1020 l 257
 789 1020 l 257
 470 572 l 257
 788 129 l 257
356 129 m 257
 544 129 l 257
 295 575 l 257
 549 1020 l 257
 358 1020 l 257
 38 572 l 257
 356 129 l 257
EndSplineSet
EndChar

StartChar: guillemotright
Encoding: 122 187 234
Width: 1048
VWidth: 0
GlyphClass: 2
Flags: W
PickledData: "(dp1
S'org.pippin.gimp.org.kernagic'
p2
(dp3
S'lstem'
p4
I0
sS'rstem'
p5
I0
ssS'com.typemytype.robofont.layerData'
p6
(dp7
sS'org.robofab.postScriptHintData'
p8
(dp9
s."
LayerCount: 2
Fore
SplineSet
663 129 m 257
 989 580 l 257
 672 1020 l 257
 492 1020 l 257
 729 571 l 257
 474 129 l 257
 663 129 l 257
248 129 m 257
 571 580 l 257
 254 1020 l 257
 70 1020 l 257
 314 571 l 257
 56 129 l 257
 248 129 l 257
EndSplineSet
EndChar

StartChar: guilsinglleft
Encoding: 457 8249 235
Width: 920
VWidth: 0
GlyphClass: 2
Flags: W
PickledData: "(dp1
S'org.robofab.postScriptHintData'
p2
(dp3
s."
LayerCount: 2
Fore
SplineSet
480 171 m 257
 683 171 l 257
 424 594 l 257
 687 1036 l 257
 488 1036 l 257
 209 597 l 257
 480 171 l 257
EndSplineSet
EndChar

StartChar: guilsinglright
Encoding: 458 8250 236
Width: 766
VWidth: 0
GlyphClass: 2
Flags: W
PickledData: "(dp1
S'org.pippin.gimp.org.kernagic'
p2
(dp3
S'lstem'
p4
I0
sS'rstem'
p5
I0
ssS'com.typemytype.robofont.layerData'
p6
(dp7
S'b'
(dp8
S'name'
p9
S'guilsinglright'
p10
sS'lib'
p11
(dp12
sS'unicodes'
p13
(tsS'width'
p14
I766
sS'contours'
p15
(tsS'components'
p16
(tsS'anchors'
p17
(tsssS'org.robofab.postScriptHintData'
p18
(dp19
s."
LayerCount: 2
Fore
SplineSet
133 171 m 257
 334 171 l 257
 614 586 l 257
 350 992 l 257
 150 992 l 257
 398 588 l 257
 133 171 l 257
EndSplineSet
EndChar

StartChar: h
Encoding: 72 104 237
Width: 1273
VWidth: 0
GlyphClass: 2
Flags: W
PickledData: "(dp1
S'org.pippin.gimp.org.kernagic'
p2
(dp3
S'lstem'
p4
I0
sS'rstem'
p5
I0
ssS'com.typemytype.robofont.layerData'
p6
(dp7
sS'com.fontlab.hintData'
p8
(dp9
S'vhints'
p10
((dp11
S'position'
p12
I193
sS'width'
p13
I122
s(dp14
g12
I910
sg13
I122
stp15
sS'hhints'
p16
((dp17
g12
I982
sg13
I92
stp18
ssS'org.robofab.postScriptHintData'
p19
(dp20
s."
HStem: 982 92
VStem: 193 122 910 122
AnchorPoint: "top" 535 1522 basechar 0
LayerCount: 2
Fore
SplineSet
137 0 m 257
 497 0 l 257
 497 621 l 258
 497 799 565 873 660 873 c 256
 751 873 795 819 795 626 c 258
 795 0 l 257
 1156 0 l 257
 1156 673 l 258
 1156 939 1046 1102 805 1102 c 256
 635 1102 542 1020 491 903 c 257
 497 1159 l 257
 497 1560 l 257
 137 1540 l 257
 137 0 l 257
EndSplineSet
EndChar

StartChar: hungarumlaut
Encoding: 406 733 240
Width: 983
VWidth: 0
GlyphClass: 4
Flags: W
PickledData: "(dp1
S'org.robofab.postScriptHintData'
p2
(dp3
sS'com.typemytype.robofont.layerData'
p4
(dp5
s."
AnchorPoint: "top" 402 1081 mark 0
LayerCount: 2
Fore
SplineSet
500 1259 m 257
 662 1259 l 257
 942 1663 l 257
 645 1663 l 257
 500 1259 l 257
122 1259 m 257
 294 1259 l 257
 550 1663 l 257
 279 1663 l 257
 122 1259 l 257
EndSplineSet
EndChar

StartChar: hyphen
Encoding: 13 45 241
Width: 960
VWidth: 0
GlyphClass: 4
Flags: W
PickledData: "(dp1
S'org.pippin.gimp.org.kernagic'
p2
(dp3
S'lstem'
p4
I0
sS'rstem'
p5
I0
ssS'com.typemytype.robofont.layerData'
p6
(dp7
sS'org.robofab.postScriptHintData'
p8
(dp9
s."
LayerCount: 2
Fore
SplineSet
143 422 m 257
 826 422 l 257
 826 646 l 257
 143 646 l 257
 143 422 l 257
EndSplineSet
EndChar

StartChar: i
Encoding: 73 105 242
Width: 653
VWidth: 0
GlyphClass: 2
Flags: HW
PickledData: "(dp1
S'org.robofab.postScriptHintData'
p2
(dp3
sS'com.typemytype.robofont.layerData'
p4
(dp5
s."
LayerCount: 2
Fore
SplineSet
531 1459 m 256
 531 1570 453 1644 329 1644 c 256
 205 1644 127 1570 127 1459 c 256
 127 1343 205 1267 329 1267 c 256
 453 1267 531 1343 531 1459 c 256
143 1082 m 257
 143 0 l 257
 503 0 l 257
 503 1082 l 257
 143 1082 l 257
EndSplineSet
EndChar

StartChar: infinity
Encoding: 475 8734 253
Width: 1784
VWidth: 0
GlyphClass: 2
Flags: W
PickledData: "(dp1
S'org.pippin.gimp.org.kernagic'
p2
(dp3
S'lstem'
p4
I0
sS'rstem'
p5
I0
ssS'com.typemytype.robofont.layerData'
p6
(dp7
S'b'
(dp8
S'name'
p9
S'infinity'
p10
sS'lib'
p11
(dp12
sS'unicodes'
p13
(tsS'width'
p14
I1647
sS'contours'
p15
(tsS'components'
p16
(tsS'anchors'
p17
(tsssS'org.robofab.postScriptHintData'
p18
(dp19
s."
LayerCount: 2
Fore
SplineSet
1488 680 m 256
 1488 549 1435 465 1320 465 c 256
 1228 465 1156 524 1058 654 c 257
 1135 759 1219 838 1316 838 c 256
 1417 838 1488 764 1488 680 c 256
745 652 m 257
 664 541 574 465 479 465 c 256
 370 465 295 560 295 652 c 256
 295 753 363 838 472 838 c 256
 578 838 665 767 745 652 c 257
899 764 m 257
 775 931 646 1044 473 1044 c 256
 274 1044 115 879 115 675 c 256
 115 450 249 256 477 256 c 256
 646 256 778 372 899 535 c 257
 1038 348 1163 256 1318 256 c 256
 1519 256 1676 422 1676 657 c 256
 1676 880 1548 1044 1320 1044 c 256
 1143 1044 1015 926 899 764 c 257
EndSplineSet
EndChar

StartChar: integral
Encoding: 476 8747 254
Width: 740
VWidth: 0
GlyphClass: 2
Flags: W
PickledData: "(dp1
S'org.pippin.gimp.org.kernagic'
p2
(dp3
S'lstem'
p4
I0
sS'rstem'
p5
I0
ssS'com.typemytype.robofont.layerData'
p6
(dp7
S'b'
(dp8
S'name'
p9
S'integral'
p10
sS'lib'
p11
(dp12
sS'unicodes'
p13
(tsS'width'
p14
I994
sS'contours'
p15
(tsS'components'
p16
(tsS'anchors'
p17
(tsssS'org.robofab.postScriptHintData'
p18
(dp19
s."
LayerCount: 2
Fore
SplineSet
208 1188 m 258
 208 -44 l 258
 208 -225 128 -231 63 -231 c 256
 34 -231 1 -224 -35 -219 c 257
 -35 -477 l 257
 36 -496 96 -504 146 -504 c 256
 377 -504 505 -320 505 -36 c 258
 505 1197 l 258
 505 1357 535 1418 646 1418 c 256
 667 1418 694 1414 721 1411 c 257
 721 1612 l 257
 649 1629 589 1640 536 1640 c 256
 314 1640 208 1467 208 1188 c 258
EndSplineSet
EndChar

StartChar: j
Encoding: 74 106 257
Width: 696
VWidth: 0
GlyphClass: 2
Flags: HW
PickledData: "(dp1
S'org.robofab.postScriptHintData'
p2
(dp3
sS'com.typemytype.robofont.layerData'
p4
(dp5
s."
LayerCount: 2
Fore
SplineSet
582 1459 m 256
 582 1570 504 1644 380 1644 c 256
 256 1644 178 1570 178 1459 c 256
 178 1343 256 1267 380 1267 c 256
 504 1267 582 1343 582 1459 c 256
189 1082 m 257
 189 2 l 258
 189 -148 168 -190 -1 -266 c 258
 -94 -308 l 257
 32 -567 l 257
 122 -527 l 258
 388 -408 549 -337 549 -31 c 258
 549 1082 l 257
 189 1082 l 257
EndSplineSet
EndChar

StartChar: k
Encoding: 75 107 259
Width: 1218
VWidth: 0
GlyphClass: 2
Flags: W
PickledData: "(dp1
S'org.pippin.gimp.org.kernagic'
p2
(dp3
S'lstem'
p4
I0
sS'rstem'
p5
I671
ssS'com.typemytype.robofont.layerData'
p6
(dp7
sS'org.robofab.postScriptHintData'
p8
(dp9
s."
LayerCount: 2
Fore
SplineSet
137 0 m 257
 497 0 l 257
 497 427 l 257
 544 475 l 257
 846 0 l 257
 1206 0 l 257
 1206 31 l 257
 814 613 l 257
 1191 1064 l 257
 1191 1082 l 257
 818 1082 l 257
 492 701 l 257
 497 840 l 257
 497 1560 l 257
 137 1540 l 257
 137 0 l 257
EndSplineSet
EndChar

StartChar: kgreenlandic
Encoding: 247 312 261
Width: 1189
VWidth: 0
GlyphClass: 2
Flags: W
PickledData: "(dp1
S'org.robofab.postScriptHintData'
p2
(dp3
s."
LayerCount: 2
Fore
SplineSet
108 0 m 257
 383 0 l 257
 383 359 l 257
 459 439 l 257
 780 0 l 257
 1098 0 l 257
 1098 7 l 257
 671 587 l 257
 1075 1064 l 257
 1075 1082 l 257
 755 1082 l 257
 377 624 l 257
 383 841 l 257
 383 1082 l 257
 108 1082 l 257
 108 0 l 257
EndSplineSet
EndChar

StartChar: l
Encoding: 76 108 262
Width: 769
VWidth: 0
GlyphClass: 2
Flags: W
PickledData: "(dp1
S'org.pippin.gimp.org.kernagic'
p2
(dp3
S'lstem'
p4
I0
sS'rstem'
p5
I238
ssS'com.typemytype.robofont.layerData'
p6
(dp7
sS'com.fontlab.hintData'
p8
(dp9
S'vhints'
p10
((dp11
S'position'
p12
I193
sS'width'
p13
I122
stp14
sS'hhints'
p15
((dp16
g12
I-11
sg13
I87
stp17
ssS'org.robofab.postScriptHintData'
p18
(dp19
s."
HStem: -11 87
VStem: 193 122
AnchorPoint: "top" 318 1555 basechar 0
LayerCount: 2
Fore
SplineSet
629 -10 m 258
 725 -6 l 257
 738 219 l 257
 737 219 l 258
 725 219 592 229 592 229 c 258
 514 234 494 276 494 329 c 258
 494 1560 l 257
 134 1540 l 257
 134 361 l 258
 134 95 252 -11 567 -11 c 256
 587 -11 608 -11 629 -10 c 258
EndSplineSet
EndChar

StartChar: less
Encoding: 28 60 267
Width: 1107
VWidth: 0
GlyphClass: 2
Flags: W
PickledData: "(dp1
S'org.pippin.gimp.org.kernagic'
p2
(dp3
S'lstem'
p4
I0
sS'rstem'
p5
I0
ssS'com.typemytype.robofont.layerData'
p6
(dp7
S'b'
(dp8
S'name'
p9
S'less'
p10
sS'lib'
p11
(dp12
sS'unicodes'
p13
(tsS'width'
p14
I1107
sS'contours'
p15
(tsS'components'
p16
(tsS'anchors'
p17
(tsssS'org.robofab.postScriptHintData'
p18
(dp19
s."
LayerCount: 2
Fore
SplineSet
1001 187 m 257
 1001 441 l 257
 393 729 l 257
 1001 1044 l 257
 1001 1288 l 257
 55 792 l 257
 55 652 l 257
 1001 187 l 257
EndSplineSet
EndChar

StartChar: lessequal
Encoding: 479 8804 268
Width: 1192
VWidth: 0
GlyphClass: 2
Flags: W
PickledData: "(dp1
S'org.robofab.postScriptHintData'
p2
(dp3
sS'com.typemytype.robofont.layerData'
p4
(dp5
s."
LayerCount: 2
Fore
SplineSet
112 -6 m 257
 1053 -6 l 257
 1053 170 l 257
 112 169 l 257
 112 -6 l 257
1049 325 m 257
 1049 554 l 257
 408 812 l 257
 1053 1078 l 257
 1053 1302 l 257
 131 877 l 257
 131 743 l 257
 1049 325 l 257
EndSplineSet
EndChar

StartChar: logicalnot
Encoding: 107 172 269
Width: 1195
VWidth: 0
GlyphClass: 2
Flags: W
PickledData: "(dp1
S'org.pippin.gimp.org.kernagic'
p2
(dp3
S'lstem'
p4
I0
sS'rstem'
p5
I0
ssS'com.typemytype.robofont.layerData'
p6
(dp7
sS'org.robofab.postScriptHintData'
p8
(dp9
s."
LayerCount: 2
Fore
SplineSet
93 854 m 257
 93 636 l 257
 882 636 l 257
 882 249 l 257
 1098 249 l 257
 1098 854 l 257
 93 854 l 257
EndSplineSet
EndChar

StartChar: lozenge
Encoding: 481 9674 270
Width: 1218
VWidth: 0
GlyphClass: 2
Flags: W
PickledData: "(dp1
S'org.pippin.gimp.org.kernagic'
p2
(dp3
S'lstem'
p4
I0
sS'rstem'
p5
I0
ssS'com.typemytype.robofont.layerData'
p6
(dp7
S'b'
(dp8
S'name'
p9
S'lozenge'
p10
sS'lib'
p11
(dp12
sS'unicodes'
p13
(tsS'width'
p14
I1164
sS'contours'
p15
(tsS'components'
p16
(tsS'anchors'
p17
(tsssS'org.robofab.postScriptHintData'
p18
(dp19
s."
LayerCount: 2
Fore
SplineSet
935 739 m 257
 728 351 803 546 596 158 c 257
 392 543 482 351 282 738 c 257
 487 1125 403 933 611 1318 c 257
 809 930 735 1123 935 739 c 257
541 1522 m 257
 95 736 l 257
 534 -45 l 257
 670 -45 l 257
 1121 736 l 257
 680 1522 l 257
 541 1522 l 257
EndSplineSet
EndChar

StartChar: m
Encoding: 77 109 272
Width: 1914
VWidth: 0
GlyphClass: 2
Flags: HW
PickledData: "(dp1
S'org.pippin.gimp.org.kernagic'
p2
(dp3
S'lstem'
p4
I0
sS'rstem'
p5
I0
ssS'com.typemytype.robofont.layerData'
p6
(dp7
sS'com.fontlab.hintData'
p8
(dp9
S'vhints'
p10
((dp11
S'position'
p12
I193
sS'width'
p13
I122
s(dp14
g12
I193
sg13
I98
s(dp15
g12
I845
sg13
I122
s(dp16
g12
I1483
sg13
I122
stp17
sS'hhints'
p18
((dp19
g12
I982
sg13
I92
stp20
ssS'org.robofab.postScriptHintData'
p21
(dp22
s."
HStem: 982 92
VStem: 193 122 193 98 845 122 1483 122
AnchorPoint: "top" 1069 1082 basechar 0
LayerCount: 2
Fore
SplineSet
128 0 m 261
 488 0 l 257
 488 624 l 257
 490 803 560 873 648 873 c 256
 738 873 782 818 782 622 c 258
 782 0 l 257
 1142 0 l 257
 1142 670 l 257
 1144 781 1218 873 1303 873 c 256
 1395 873 1437 813 1437 625 c 258
 1437 0 l 257
 1797 0 l 257
 1797 675 l 258
 1797 940 1670 1102 1430 1102 c 259
 1250 1102 1153 1007 1101 901 c 261
 1056 1057 944 1102 795 1102 c 259
 625 1102 510 1012 456 907 c 257
 437 1082 l 257
 128 1082 l 257
 128 0 l 261
EndSplineSet
EndChar

StartChar: macron
Encoding: 110 175 273
Width: 1039
VWidth: 0
GlyphClass: 4
Flags: W
PickledData: "(dp1
S'org.robofab.postScriptHintData'
p2
(dp3
sS'com.typemytype.robofont.layerData'
p4
(dp5
s."
AnchorPoint: "top" 518 1081 mark 0
LayerCount: 2
Fore
SplineSet
159 1265 m 257
 874 1265 l 257
 874 1419 l 257
 159 1419 l 257
 159 1265 l 257
EndSplineSet
EndChar

StartChar: minus
Encoding: 471 8722 275
Width: 1218
VWidth: 0
GlyphClass: 2
Flags: W
PickledData: "(dp1
S'org.pippin.gimp.org.kernagic'
p2
(dp3
S'lstem'
p4
I0
sS'rstem'
p5
I0
ssS'com.typemytype.robofont.layerData'
p6
(dp7
sS'org.robofab.postScriptHintData'
p8
(dp9
s."
LayerCount: 2
Fore
SplineSet
93 666 m 257
 93 457 l 257
 1136 457 l 257
 1136 666 l 257
 93 666 l 257
EndSplineSet
EndChar

StartChar: multiply
Encoding: 150 215 276
Width: 994
VWidth: 0
GlyphClass: 2
Flags: W
PickledData: "(dp1
S'org.pippin.gimp.org.kernagic'
p2
(dp3
S'lstem'
p4
I0
sS'rstem'
p5
I0
ssS'com.typemytype.robofont.layerData'
p6
(dp7
sS'org.robofab.postScriptHintData'
p8
(dp9
s."
LayerCount: 2
Fore
SplineSet
92 794 m 257
 353 517 l 257
 93 246 l 257
 236 87 l 257
 504 360 l 257
 769 90 l 257
 915 247 l 257
 915 247 727 441 654 517 c 257
 914 794 l 257
 770 946 l 257
 504 672 l 257
 234 946 l 257
 92 794 l 257
EndSplineSet
EndChar

StartChar: n
Encoding: 78 110 277
Width: 1267
VWidth: 0
GlyphClass: 2
Flags: W
PickledData: "(dp1
S'org.pippin.gimp.org.kernagic'
p2
(dp3
S'lstem'
p4
I0
sS'rstem'
p5
I0
ssS'com.typemytype.robofont.layerData'
p6
(dp7
sS'com.fontlab.hintData'
p8
(dp9
S'vhints'
p10
((dp11
S'position'
p12
I193
sS'width'
p13
I122
s(dp14
g12
I903
sg13
I122
stp15
sS'hhints'
p16
((dp17
g12
I0
sg13
I22
s(dp18
g12
I982
sg13
I92
s(dp19
g12
I1034
sg13
I21
stp20
ssS'org.robofab.postScriptHintData'
p21
(dp22
s."
HStem: 0 22 982 92 1034 21
VStem: 193 122 903 122
AnchorPoint: "top" 702 1082 basechar 0
LayerCount: 2
Fore
SplineSet
131 0 m 257
 492 0 l 257
 492 622 l 258
 492 802 561 873 655 873 c 256
 746 873 789 817 789 627 c 258
 789 0 l 257
 1150 0 l 257
 1150 671 l 258
 1150 939 1024 1102 782 1102 c 256
 606 1102 511 1012 459 913 c 257
 441 1082 l 257
 131 1082 l 257
 131 0 l 257
EndSplineSet
EndChar

StartChar: nine
Encoding: 25 57 282
Width: 1378
VWidth: 0
GlyphClass: 2
Flags: W
PickledData: "(dp1
S'org.pippin.gimp.org.kernagic'
p2
(dp3
S'lstem'
p4
I0
sS'rstem'
p5
I0
ssS'com.typemytype.robofont.layerData'
p6
(dp7
sS'org.robofab.postScriptHintData'
p8
(dp9
s."
LayerCount: 2
Fore
SplineSet
703 757 m 258
 701 757 l 258
 583 757 511 852 511 998 c 256
 511 1137 585 1228 704 1228 c 256
 823 1228 896 1137 896 998 c 256
 896 846 816 757 703 757 c 258
326 0 m 257
 712 0 l 257
 1107 564 l 258
 1200 696 1262 815 1262 989 c 256
 1262 1273 1059 1476 705 1476 c 256
 359 1476 149 1287 149 1010 c 256
 149 691 384 558 588 558 c 256
 648 558 706 573 752 593 c 257
 600 415 467 220 326 31 c 257
 326 0 l 257
EndSplineSet
EndChar

StartChar: notequal
Encoding: 478 8800 283
Width: 1189
VWidth: 0
GlyphClass: 2
Flags: W
PickledData: "(dp1
S'org.pippin.gimp.org.kernagic'
p2
(dp3
S'lstem'
p4
I0
sS'rstem'
p5
I0
ssS'com.typemytype.robofont.layerData'
p6
(dp7
S'b'
(dp8
S'name'
p9
S'notequal'
p10
sS'lib'
p11
(dp12
sS'unicodes'
p13
(tsS'width'
p14
I1079
sS'contours'
p15
(tsS'components'
p16
(tsS'anchors'
p17
(tsssS'org.robofab.postScriptHintData'
p18
(dp19
s."
LayerCount: 2
Fore
SplineSet
390 41 m 257
 523 315 l 257
 1083 315 l 257
 1069 509 l 257
 613 509 l 257
 715 715 l 257
 1083 715 l 257
 1068 923 l 257
 805 923 l 257
 919 1152 l 257
 732 1179 l 257
 600 923 l 257
 55 923 l 257
 70 717 l 257
 514 717 l 257
 412 510 l 257
 59 510 l 257
 70 315 l 257
 323 315 l 257
 204 71 l 257
 390 41 l 257
EndSplineSet
EndChar

StartChar: numbersign
Encoding: 3 35 285
Width: 1110
VWidth: 0
GlyphClass: 2
Flags: W
PickledData: "(dp1
S'org.pippin.gimp.org.kernagic'
p2
(dp3
S'lstem'
p4
I0
sS'rstem'
p5
I0
ssS'com.typemytype.robofont.layerData'
p6
(dp7
sS'org.robofab.postScriptHintData'
p8
(dp9
s."
LayerCount: 2
Fore
SplineSet
430 572 m 257
 493 945 l 257
 709 945 l 257
 644 572 l 257
 430 572 l 257
153 1 m 257
 326 1 l 257
 404 439 l 257
 622 439 l 257
 543 1 l 257
 719 1 l 257
 800 439 l 257
 960 439 l 257
 977 572 l 257
 823 572 l 257
 886 945 l 257
 1039 945 l 257
 1058 1082 l 257
 909 1082 l 257
 978 1465 l 257
 799 1465 l 257
 733 1082 l 257
 515 1082 l 257
 584 1465 l 257
 408 1465 l 257
 342 1082 l 257
 146 1082 l 257
 128 945 l 257
 319 945 l 257
 254 572 l 257
 83 572 l 257
 63 439 l 257
 231 439 l 257
 153 1 l 257
EndSplineSet
EndChar

StartChar: o
Encoding: 79 111 286
Width: 1254
VWidth: 0
GlyphClass: 2
Flags: W
PickledData: "(dp1
S'org.pippin.gimp.org.kernagic'
p2
(dp3
S'lstem'
p4
I0
sS'rstem'
p5
I0
ssS'com.fontlab.hintData'
p6
(dp7
S'vhints'
p8
((dp9
S'position'
p10
I128
sS'width'
p11
I120
s(dp12
g10
I982
sg11
I120
stp13
sS'hhints'
p14
((dp15
g10
I-19
sg11
I92
s(dp16
g10
I982
sg11
I92
stp17
ssS'com.typemytype.robofont.guides'
p18
((dp19
S'y'
I1093
sS'x'
I582
sS'magnetic'
p20
I5
sS'angle'
p21
F90
sS'isGlobal'
p22
I00
stp23
sS'com.typemytype.robofont.layerData'
p24
(dp25
sS'org.robofab.postScriptHintData'
p26
(dp27
s."
HStem: -19 92 982 92
VStem: 128 120 982 120
AnchorPoint: "top" 628 1082 basechar 0
LayerCount: 2
Fore
SplineSet
628 -22 m 256
 967 -22 1175 209 1175 545 c 256
 1175 874 965 1102 628 1102 c 256
 290 1102 79 874 79 545 c 256
 79 209 287 -22 628 -22 c 256
628 208 m 256
 508 208 438 306 438 545 c 256
 438 778 507 873 628 873 c 256
 748 873 816 778 816 545 c 256
 816 308 745 208 628 208 c 256
EndSplineSet
Substitution2: "Single Substitution lookup 4 subtable" ordmasculine
EndChar

StartChar: oe
Encoding: 274 339 291
Width: 1844
VWidth: 0
GlyphClass: 2
Flags: W
PickledData: "(dp1
S'org.pippin.gimp.org.kernagic'
p2
(dp3
S'lstem'
p4
I0
sS'rstem'
p5
I0
ssS'com.typemytype.robofont.layerData'
p6
(dp7
S'b'
(dp8
S'name'
p9
S'oe'
p10
sS'lib'
p11
(dp12
sS'unicodes'
p13
(tsS'width'
p14
F1915.3599999999999
sS'contours'
p15
(tsS'components'
p16
(tsS'anchors'
p17
(tsssS'org.robofab.postScriptHintData'
p18
(dp19
s."
LayerCount: 2
Fore
SplineSet
1086 615 m 257
 1095 817 1209 889 1316 889 c 256
 1420 889 1486 824 1498 615 c 257
 1086 615 l 257
569 202 m 256
 415 202 340 310 340 545 c 256
 340 775 415 878 569 878 c 256
 723 878 798 775 798 545 c 256
 798 310 723 202 569 202 c 256
1745 557 m 256
 1745 875 1597 1097 1301 1097 c 256
 1158 1097 1016 1004 942 907 c 257
 871 1004 722 1097 569 1097 c 256
 263 1097 62 879 62 544 c 256
 62 204 261 -16 569 -16 c 256
 721 -16 859 66 940 161 c 257
 1030 59 1183 -17 1354 -17 c 256
 1531 -17 1679 47 1735 111 c 257
 1659 291 l 257
 1645 291 l 257
 1612 249 1486 202 1374 202 c 256
 1262 202 1114 240 1081 434 c 257
 1737 434 l 257
 1737 434 1745 477 1745 557 c 256
EndSplineSet
EndChar

StartChar: ogonek
Encoding: 404 731 292
Width: 766
VWidth: 0
GlyphClass: 4
Flags: W
PickledData: "(dp1
S'org.pippin.gimp.org.kernagic'
p2
(dp3
S'lstem'
p4
I0
sS'rstem'
p5
I0
ssS'com.typemytype.robofont.layerData'
p6
(dp7
sS'org.robofab.postScriptHintData'
p8
(dp9
s."
LayerCount: 2
Fore
SplineSet
451 -448 m 256
 518 -448 582 -433 646 -408 c 257
 637 -246 l 257
 625 -254 562 -282 503 -282 c 256
 461 -282 433 -241 433 -206 c 256
 433 -147 464 -62 546 4 c 257
 426 4 l 257
 350 -40 239 -123 239 -260 c 256
 239 -389 340 -448 451 -448 c 256
EndSplineSet
EndChar

StartChar: one
Encoding: 17 49 296
Width: 1378
VWidth: 0
GlyphClass: 2
Flags: W
PickledData: "(dp1
S'org.pippin.gimp.org.kernagic'
p2
(dp3
S'lstem'
p4
I0
sS'rstem'
p5
I0
ssS'com.typemytype.robofont.layerData'
p6
(dp7
sS'org.robofab.postScriptHintData'
p8
(dp9
s."
LayerCount: 2
Fore
SplineSet
193 0 m 257
 1279 0 l 257
 1279 251 l 257
 953 251 l 257
 953 1456 l 257
 621 1456 l 257
 519 1378 330 1304 194 1265 c 257
 194 1026 l 257
 302 1038 456 1088 564 1136 c 257
 564 251 l 257
 193 251 l 257
 193 0 l 257
EndSplineSet
EndChar

StartChar: onehalf
Encoding: 124 189 297
Width: 1963
VWidth: 0
GlyphClass: 3
Flags: W
PickledData: "(dp1
S'org.pippin.gimp.org.kernagic'
p2
(dp3
S'lstem'
p4
I0
sS'rstem'
p5
I0
ssS'com.typemytype.robofont.layerData'
p6
(dp7
sS'org.robofab.postScriptHintData'
p8
(dp9
s."
LayerCount: 2
Fore
SplineSet
401 0 m 257
 609 0 l 257
 1595 1509 l 257
 1387 1509 l 257
 401 0 l 257
157 600 m 257
 665 600 l 257
 665 744 l 257
 523 744 l 257
 523 1509 l 257
 365 1509 l 257
 339 1495 201 1419 148 1392 c 257
 148 1246 l 257
 151 1244 277 1304 314 1322 c 257
 314 744 l 257
 157 744 l 257
 157 600 l 257
1283 0 m 257
 1845 0 l 257
 1851 153 l 257
 1500 153 l 257
 1687 315 l 258
 1812 423 1857 524 1857 607 c 256
 1857 740 1782 885 1540 885 c 256
 1385 885 1269 799 1205 718 c 257
 1310 604 l 257
 1364 670 1453 717 1534 717 c 256
 1598 717 1650 677 1650 612 c 256
 1650 563 1620 505 1563 450 c 258
 1250 147 l 257
 1283 0 l 257
EndSplineSet
Ligature2: "fracDiagonalFractionslookup11 subtable" one slash two
EndChar

StartChar: onequarter
Encoding: 123 188 298
Width: 1604
VWidth: 0
GlyphClass: 3
Flags: W
PickledData: "(dp1
S'org.pippin.gimp.org.kernagic'
p2
(dp3
S'lstem'
p4
I0
sS'rstem'
p5
I0
ssS'com.typemytype.robofont.layerData'
p6
(dp7
sS'org.robofab.postScriptHintData'
p8
(dp9
s."
LayerCount: 2
Fore
SplineSet
1181 325 m 257
 1353 642 l 257
 1353 325 l 257
 1181 325 l 257
295 0 m 257
 522 0 l 257
 1517 1507 l 257
 1299 1507 l 257
 295 0 l 257
1352 0 m 257
 1527 0 l 257
 1527 177 l 257
 1622 177 l 257
 1639 325 l 257
 1526 325 l 257
 1526 876 l 257
 1342 876 l 257
 988 332 l 257
 988 177 l 257
 1352 177 l 257
 1352 0 l 257
115 600 m 257
 596 600 l 257
 596 775 l 257
 460 775 l 257
 460 1507 l 257
 303 1507 l 257
 276 1495 150 1417 97 1392 c 257
 97 1219 l 258
 97 1216 234 1276 271 1293 c 257
 271 775 l 257
 115 775 l 257
 115 600 l 257
EndSplineSet
Ligature2: "fracDiagonalFractionslookup11 subtable" one slash four
EndChar

StartChar: ordmasculine
Encoding: 121 186 300
Width: 965
VWidth: 0
GlyphClass: 2
Flags: W
PickledData: "(dp1
S'org.pippin.gimp.org.kernagic'
p2
(dp3
S'lstem'
p4
I0
sS'rstem'
p5
I0
ssS'com.typemytype.robofont.layerData'
p6
(dp7
S'b'
(dp8
S'name'
p9
S'ordmasculine'
p10
sS'lib'
p11
(dp12
sS'unicodes'
p13
(tsS'width'
p14
I965
sS'contours'
p15
(tsS'components'
p16
(tsS'anchors'
p17
(tsssS'org.robofab.postScriptHintData'
p18
(dp19
s."
LayerCount: 2
Fore
SplineSet
648 1131 m 256
 648 972 593 901 480 901 c 256
 375 901 320 973 320 1134 c 256
 320 1298 376 1370 480 1370 c 256
 588 1370 648 1294 648 1131 c 256
106 1134 m 256
 106 902 237 717 480 717 c 256
 711 717 855 903 855 1134 c 256
 855 1371 729 1554 480 1554 c 256
 237 1554 106 1368 106 1134 c 256
EndSplineSet
EndChar

StartChar: oslash
Encoding: 183 248 301
Width: 1254
VWidth: 0
GlyphClass: 2
Flags: W
PickledData: "(dp1
S'org.pippin.gimp.org.kernagic'
p2
(dp3
S'lstem'
p4
I0
sS'rstem'
p5
I0
ssS'com.typemytype.robofont.layerData'
p6
(dp7
sS'org.robofab.postScriptHintData'
p8
(dp9
s."
LayerCount: 2
Fore
SplineSet
233 -126 m 257
 310 -178 l 257
 1052 1209 l 257
 969 1261 l 257
 233 -126 l 257
EndSplineSet
Refer: 286 111 N 1 0 0 1 0 0 2
EndChar

StartChar: p
Encoding: 80 112 304
Width: 1272
VWidth: 0
GlyphClass: 2
Flags: W
PickledData: "(dp1
S'org.pippin.gimp.org.kernagic'
p2
(dp3
S'lstem'
p4
I0
sS'rstem'
p5
I0
ssS'com.typemytype.robofont.layerData'
p6
(dp7
sS'com.fontlab.hintData'
p8
(dp9
S'vhints'
p10
((dp11
S'position'
p12
I193
sS'width'
p13
I122
s(dp14
g12
I193
sg13
I97
s(dp15
g12
I1009
sg13
I122
stp16
sS'hhints'
p17
((dp18
g12
I-19
sg13
I92
s(dp19
g12
I982
sg13
I92
stp20
ssS'org.robofab.postScriptHintData'
p21
(dp22
s."
HStem: -19 92 982 92
VStem: 193 122 193 97 1009 122
AnchorPoint: "top" 661 1082 basechar 0
LayerCount: 2
Fore
SplineSet
654 208 m 256
 569 208 521 246 486 290 c 257
 486 750 l 257
 516 825 580 873 669 873 c 256
 757 873 830 806 830 549 c 256
 830 262 741 208 654 208 c 256
131 -476 m 257
 485 -476 l 257
 485 -55 l 257
 481 103 l 257
 531 38 617 -20 749 -20 c 256
 1045 -20 1189 216 1189 549 c 256
 1189 862 1048 1102 760 1102 c 256
 599 1102 505 1017 458 908 c 257
 450 1082 l 257
 131 1082 l 257
 131 -476 l 257
EndSplineSet
EndChar

StartChar: paragraph
Encoding: 117 182 305
Width: 1246
VWidth: 0
GlyphClass: 2
Flags: W
PickledData: "(dp1
S'org.pippin.gimp.org.kernagic'
p2
(dp3
S'lstem'
p4
I0
sS'rstem'
p5
I0
ssS'com.typemytype.robofont.layerData'
p6
(dp7
sS'org.robofab.postScriptHintData'
p8
(dp9
s."
LayerCount: 2
Fore
SplineSet
699 1304 m 257
 893 1304 l 257
 893 -255 l 257
 1072 -255 l 257
 1072 1456 l 257
 661 1456 l 258
 246 1456 99 1329 99 1055 c 256
 99 859 233 681 520 681 c 257
 520 -255 l 257
 699 -255 l 257
 699 1304 l 257
EndSplineSet
EndChar

StartChar: parenright
Encoding: 9 41 307
Width: 876
VWidth: 0
GlyphClass: 2
Flags: W
PickledData: "(dp1
S'org.pippin.gimp.org.kernagic'
p2
(dp3
S'lstem'
p4
I0
sS'rstem'
p5
I0
ssS'com.typemytype.robofont.layerData'
p6
(dp7
S'b'
(dp8
S'name'
p9
S'parenright'
p10
sS'lib'
p11
(dp12
sS'unicodes'
p13
(tsS'width'
p14
I766
sS'contours'
p15
(tsS'components'
p16
(tsS'anchors'
p17
(tsssS'org.robofab.postScriptHintData'
p18
(dp19
s."
LayerCount: 2
Fore
SplineSet
670 649 m 256
 670 1012 536 1417 387 1596 c 257
 139 1596 l 257
 139 1556 l 257
 272 1413 416 1148 416 649 c 256
 416 151 272 -125 139 -268 c 257
 139 -297 l 257
 387 -297 l 257
 536 -118 670 286 670 649 c 256
EndSplineSet
EndChar

StartChar: partialdiff
Encoding: 466 8706 308
Width: 1384
VWidth: 0
GlyphClass: 2
Flags: W
PickledData: "(dp1
S'org.robofab.postScriptHintData'
p2
(dp3
s."
LayerCount: 2
Fore
SplineSet
572 136 m 256
 523 136 499 189 499 267 c 256
 499 453 637 775 903 824 c 257
 879 542 766 136 572 136 c 256
558 -21 m 256
 945 -21 1185 397 1185 931 c 256
 1185 1311 932 1560 622 1560 c 256
 510 1560 391 1528 273 1457 c 257
 332 1305 l 257
 416 1355 500 1379 576 1379 c 256
 767 1379 911 1231 911 987 c 258
 911 969 l 257
 455 941 201 591 201 315 c 256
 201 130 315 -21 558 -21 c 256
EndSplineSet
EndChar

StartChar: percent
Encoding: 5 37 309
Width: 2227
VWidth: 0
GlyphClass: 2
Flags: W
PickledData: "(dp1
S'org.pippin.gimp.org.kernagic'
p2
(dp3
S'lstem'
p4
I0
sS'rstem'
p5
I0
ssS'com.typemytype.robofont.layerData'
p6
(dp7
S'b'
(dp8
S'name'
p9
S'percent'
p10
sS'lib'
p11
(dp12
sS'unicodes'
p13
(tsS'width'
p14
I1563
sS'contours'
p15
(tsS'components'
p16
(tsS'anchors'
p17
(tsssS'org.robofab.postScriptHintData'
p18
(dp19
s."
LayerCount: 2
Fore
SplineSet
1732 -38 m 256
 1980 -38 2154 145 2154 379 c 256
 2154 615 1983 788 1732 788 c 256
 1484 788 1311 610 1311 379 c 256
 1311 145 1480 -38 1732 -38 c 256
1736 157 m 256
 1621 157 1539 256 1539 382 c 256
 1539 506 1621 603 1736 603 c 256
 1849 603 1928 511 1928 382 c 256
 1928 258 1850 157 1736 157 c 256
578 0 m 257
 826 0 l 257
 1673 1527 l 257
 1434 1527 l 257
 578 0 l 257
525 720 m 256
 773 720 947 902 947 1135 c 256
 947 1370 776 1547 525 1547 c 256
 277 1547 115 1367 115 1135 c 256
 115 902 273 720 525 720 c 256
529 914 m 256
 414 914 332 1012 332 1139 c 256
 332 1264 414 1360 529 1360 c 256
 642 1360 721 1268 721 1139 c 256
 721 1013 643 914 529 914 c 256
EndSplineSet
EndChar

StartChar: period
Encoding: 14 46 310
Width: 734
VWidth: 0
GlyphClass: 2
Flags: W
PickledData: "(dp1
S'org.pippin.gimp.org.kernagic'
p2
(dp3
S'lstem'
p4
I0
sS'rstem'
p5
I0
ssS'com.typemytype.robofont.layerData'
p6
(dp7
S'b'
(dp8
S'name'
p9
S'period'
p10
sS'lib'
p11
(dp12
sS'unicodes'
p13
(tsS'width'
p14
I624
sS'contours'
p15
(tsS'components'
p16
(tsS'anchors'
p17
(tsssS'org.robofab.postScriptHintData'
p18
(dp19
s."
LayerCount: 2
Fore
SplineSet
360 -6 m 256
 455 -6 531 46 531 155 c 256
 531 268 455 322 360 322 c 256
 267 322 189 268 189 155 c 256
 189 44 269 -6 360 -6 c 256
EndSplineSet
EndChar

StartChar: periodcentered
Encoding: 118 183 311
Width: 597
VWidth: 0
GlyphClass: 2
Flags: W
PickledData: "(dp1
S'org.pippin.gimp.org.kernagic'
p2
(dp3
S'lstem'
p4
I0
sS'rstem'
p5
I0
ssS'com.typemytype.robofont.layerData'
p6
(dp7
S'b'
(dp8
S'name'
p9
S'periodcentered'
p10
sS'lib'
p11
(dp12
sS'unicodes'
p13
(tsS'width'
p14
I653
sS'contours'
p15
(tsS'components'
p16
(tsS'anchors'
p17
(tsssS'org.robofab.postScriptHintData'
p18
(dp19
s."
LayerCount: 2
Fore
SplineSet
492 447 m 256
 596 447 662 517 662 628 c 256
 662 735 596 802 492 802 c 256
 387 802 320 735 320 628 c 256
 320 517 387 447 492 447 c 256
EndSplineSet
EndChar

StartChar: perthousand
Encoding: 456 8240 312
Width: 3221
VWidth: 0
GlyphClass: 2
Flags: W
PickledData: "(dp1
S'org.pippin.gimp.org.kernagic'
p2
(dp3
S'lstem'
p4
I0
sS'rstem'
p5
I0
ssS'com.typemytype.robofont.layerData'
p6
(dp7
S'b'
(dp8
S'name'
p9
S'perthousand'
p10
sS'lib'
p11
(dp12
sS'unicodes'
p13
(tsS'width'
p14
I2251
sS'contours'
p15
(tsS'components'
p16
(tsS'anchors'
p17
(tsssS'org.robofab.postScriptHintData'
p18
(dp19
s."
LayerCount: 2
Fore
SplineSet
2726 -38 m 256
 2975 -38 3149 145 3149 379 c 256
 3149 615 2978 788 2726 788 c 256
 2478 788 2305 610 2305 379 c 256
 2305 145 2474 -38 2726 -38 c 256
2730 157 m 256
 2615 157 2533 256 2533 382 c 256
 2533 506 2615 603 2730 603 c 256
 2843 603 2923 511 2923 382 c 256
 2923 258 2844 157 2730 157 c 256
EndSplineSet
Refer: 309 37 N 1 0 0 1 49 0 2
EndChar

StartChar: pi
Encoding: 417 960 313
Width: 1490
VWidth: 0
GlyphClass: 2
Flags: HW
PickledData: "(dp1
S'org.robofab.postScriptHintData'
p2
(dp3
sS'com.typemytype.robofont.layerData'
p4
(dp5
s."
LayerCount: 2
Fore
SplineSet
1149 -13 m 256
 1227 -13 1291 11 1324 43 c 257
 1324 170 l 257
 1305 164 1290 163 1269 163 c 256
 1147.53064895 163 1116.99612671 262.192699939 1116.99612671 403.457127755 c 0
 1116.99612671 529.364411112 1141.25257479 688.693232066 1147 841 c 257
 1382 841 l 257
 1382 1082 l 257
 502 1082 l 258
 268 1082 195 927 195 712 c 257
 289 712 l 257
 301 788 340 841 419 841 c 258
 485 841 l 257
 421 383 l 258
 392 171 256 110 207 110 c 257
 207 4 l 257
 548 4 617 104 627 319 c 258
 653 841 l 257
 972 841 l 257
 935.969635233 680.579090203 894.341057035 488.25667336 894.341057035 326.771878719 c 0
 894.341057035 135.182376415 952.937563683 -13 1149 -13 c 256
EndSplineSet
EndChar

StartChar: plus
Encoding: 11 43 314
Width: 1190
VWidth: 0
GlyphClass: 2
Flags: W
PickledData: "(dp1
S'org.pippin.gimp.org.kernagic'
p2
(dp3
S'lstem'
p4
I0
sS'rstem'
p5
I0
ssS'com.typemytype.robofont.layerData'
p6
(dp7
S'b'
(dp8
S'name'
p9
S'plus'
p10
sS'lib'
p11
(dp12
sS'unicodes'
p13
(tsS'width'
p14
I1136
sS'contours'
p15
(tsS'components'
p16
(tsS'anchors'
p17
(tsssS'org.robofab.postScriptHintData'
p18
(dp19
s."
LayerCount: 2
Fore
SplineSet
470 1232 m 257
 470 860 l 257
 103 860 l 257
 103 617 l 257
 470 617 l 257
 470 237 l 257
 718 237 l 257
 718 617 l 257
 1085 617 l 257
 1085 860 l 257
 719 860 l 257
 719 1232 l 257
 470 1232 l 257
EndSplineSet
EndChar

StartChar: plusminus
Encoding: 112 177 315
Width: 1136
VWidth: 0
GlyphClass: 2
Flags: W
PickledData: "(dp1
S'org.pippin.gimp.org.kernagic'
p2
(dp3
S'lstem'
p4
I0
sS'rstem'
p5
I0
ssS'com.typemytype.robofont.layerData'
p6
(dp7
sS'org.robofab.postScriptHintData'
p8
(dp9
s."
LayerCount: 2
Fore
SplineSet
105 202 m 257
 105 0 l 257
 1043 0 l 257
 1043 202 l 257
 105 202 l 257
458 1229 m 257
 458 888 l 257
 103 888 l 257
 103 657 l 257
 458 657 l 257
 458 327 l 257
 693 327 l 257
 693 657 l 257
 1049 657 l 257
 1049 888 l 257
 694 888 l 257
 694 1229 l 257
 458 1229 l 257
EndSplineSet
EndChar

StartChar: product
Encoding: 469 8719 316
Width: 1589
VWidth: 0
GlyphClass: 2
Flags: W
PickledData: "(dp1
S'org.pippin.gimp.org.kernagic'
p2
(dp3
S'lstem'
p4
I0
sS'rstem'
p5
I0
ssS'com.typemytype.robofont.layerData'
p6
(dp7
S'b'
(dp8
S'name'
p9
S'product'
p10
sS'lib'
p11
(dp12
sS'unicodes'
p13
(tsS'width'
p14
I1533
sS'contours'
p15
(tsS'components'
p16
(tsS'anchors'
p17
(tsssS'org.robofab.postScriptHintData'
p18
(dp19
s."
LayerCount: 2
Fore
SplineSet
207 1538 m 257
 207 0 l 257
 387 0 l 257
 387 1374 l 257
 1210 1374 l 257
 1210 0 l 257
 1390 0 l 257
 1390 1538 l 257
 207 1538 l 257
EndSplineSet
EndChar

StartChar: q
Encoding: 81 113 317
Width: 1261
VWidth: 0
GlyphClass: 2
Flags: W
PickledData: "(dp1
S'org.pippin.gimp.org.kernagic'
p2
(dp3
S'lstem'
p4
I0
sS'rstem'
p5
I0
ssS'com.typemytype.robofont.layerData'
p6
(dp7
sS'org.robofab.postScriptHintData'
p8
(dp9
s."
LayerCount: 2
Fore
SplineSet
619 208 m 256
 531 208 441 262 441 550 c 256
 441 807 518 873 606 873 c 256
 685 873 750 835 785 773 c 257
 785 289 l 257
 752 246 704 208 619 208 c 256
787 -476 m 257
 1140 -476 l 257
 1140 1082 l 257
 822 1082 l 257
 814 918 l 257
 766 1021 673 1102 515 1102 c 256
 227 1102 83 863 83 550 c 256
 83 216 226 -20 524 -20 c 256
 654 -20 740 39 791 104 c 257
 787 -51 l 257
 787 -476 l 257
EndSplineSet
EndChar

StartChar: question
Encoding: 31 63 318
Width: 1074
VWidth: 0
GlyphClass: 2
Flags: W
PickledData: "(dp1
S'org.pippin.gimp.org.kernagic'
p2
(dp3
S'lstem'
p4
I0
sS'rstem'
p5
I0
ssS'com.typemytype.robofont.layerData'
p6
(dp7
sS'org.robofab.postScriptHintData'
p8
(dp9
s."
LayerCount: 2
Fore
SplineSet
366 -19 m 256
 462 -19 522 44 522 141 c 256
 522 239 462 301 366 301 c 256
 265 301 204 239 204 141 c 256
 204 44 265 -19 366 -19 c 256
323 506 m 257
 399 478 l 257
 597 783 930 821 930 1205 c 256
 930 1425 731 1553 508 1553 c 256
 390 1553 217 1513 114 1411 c 257
 199 1166 l 257
 278 1210 373 1239 448 1239 c 256
 560 1239 601 1174 601 1095 c 256
 601 953 448 869 323 506 c 257
EndSplineSet
EndChar

StartChar: quotedbl
Encoding: 2 34 320
Width: 868
VWidth: 0
GlyphClass: 2
Flags: W
PickledData: "(dp1
S'org.robofab.postScriptHintData'
p2
(dp3
sS'com.typemytype.robofont.layerData'
p4
(dp5
s."
LayerCount: 2
Fore
SplineSet
585 910 m 257
 743 910 l 257
 791 1557 l 257
 490 1557 l 257
 585 910 l 257
184 910 m 257
 341 910 l 257
 389 1557 l 257
 88 1557 l 257
 184 910 l 257
EndSplineSet
EndChar

StartChar: quotedblbase
Encoding: 451 8222 321
Width: 963
VWidth: 0
GlyphClass: 2
Flags: W
PickledData: "(dp1
S'org.robofab.postScriptHintData'
p2
(dp3
s."
LayerCount: 2
Fore
SplineSet
518 -380 m 257
 729 -380 l 257
 852 141 l 257
 554 141 l 257
 518 -380 l 257
104 -380 m 257
 315 -380 l 257
 439 141 l 257
 141 141 l 257
 104 -380 l 257
EndSplineSet
EndChar

StartChar: quotedblleft
Encoding: 449 8220 322
Width: 975
VWidth: 0
GlyphClass: 2
Flags: W
PickledData: "(dp1
S'org.robofab.postScriptHintData'
p2
(dp3
sS'com.typemytype.robofont.layerData'
p4
(dp5
s."
LayerCount: 2
Fore
SplineSet
540 1033 m 257
 840 1033 l 257
 876 1555 l 257
 664 1555 l 257
 540 1033 l 257
114 1033 m 257
 414 1033 l 257
 450 1555 l 257
 238 1555 l 257
 114 1033 l 257
EndSplineSet
EndChar

StartChar: quotedblright
Encoding: 450 8221 323
Width: 975
VWidth: 0
GlyphClass: 2
Flags: W
PickledData: "(dp1
S'org.robofab.postScriptHintData'
p2
(dp3
sS'com.typemytype.robofont.layerData'
p4
(dp5
s."
LayerCount: 2
Fore
SplineSet
114 1033 m 257
 326 1033 l 257
 450 1555 l 257
 150 1555 l 257
 114 1033 l 257
540 1033 m 257
 752 1033 l 257
 876 1555 l 257
 576 1555 l 257
 540 1033 l 257
EndSplineSet
EndChar

StartChar: quoteleft
Encoding: 446 8216 324
Width: 530
VWidth: 0
GlyphClass: 2
Flags: W
PickledData: "(dp1
S'org.robofab.postScriptHintData'
p2
(dp3
sS'com.typemytype.robofont.layerData'
p4
(dp5
s."
LayerCount: 2
Fore
SplineSet
450 1555 m 257
 238 1555 l 257
 114 1033 l 257
 414 1033 l 257
 450 1555 l 257
EndSplineSet
EndChar

StartChar: quoteright
Encoding: 447 8217 325
Width: 530
VWidth: 0
GlyphClass: 2
Flags: W
PickledData: "(dp1
S'org.robofab.postScriptHintData'
p2
(dp3
sS'com.typemytype.robofont.layerData'
p4
(dp5
s."
LayerCount: 2
Fore
SplineSet
114 1033 m 257
 326 1033 l 257
 450 1555 l 257
 150 1555 l 257
 114 1033 l 257
EndSplineSet
EndChar

StartChar: quotesinglbase
Encoding: 448 8218 326
Width: 524
VWidth: 0
GlyphClass: 2
Flags: W
PickledData: "(dp1
S'org.robofab.postScriptHintData'
p2
(dp3
s."
LayerCount: 2
Fore
SplineSet
104 -380 m 257
 315 -380 l 257
 438 141 l 257
 140 141 l 257
 104 -380 l 257
EndSplineSet
EndChar

StartChar: quotesingle
Encoding: 7 39 327
Width: 633
VWidth: 0
GlyphClass: 2
Flags: W
PickledData: "(dp1
S'org.robofab.postScriptHintData'
p2
(dp3
s."
LayerCount: 2
Fore
SplineSet
237 906 m 257
 395 906 l 257
 442 1555 l 257
 142 1555 l 257
 237 906 l 257
EndSplineSet
EndChar

StartChar: r
Encoding: 82 114 328
Width: 877
VWidth: 0
GlyphClass: 2
Flags: W
PickledData: "(dp1
S'org.pippin.gimp.org.kernagic'
p2
(dp3
S'lstem'
p4
I0
sS'rstem'
p5
I352
ssS'com.typemytype.robofont.layerData'
p6
(dp7
sS'com.fontlab.hintData'
p8
(dp9
S'vhints'
p10
((dp11
S'position'
p12
I193
sS'width'
p13
I122
s(dp14
g12
I193
sg13
I92
stp15
sS'hhints'
p16
((dp17
g12
I974
sg13
I94
stp18
ssS'org.robofab.postScriptHintData'
p19
(dp20
s."
HStem: 974 94
VStem: 193 122 193 92
AnchorPoint: "top" 423 1082 basechar 0
LayerCount: 2
Fore
SplineSet
121 0 m 257
 481 0 l 257
 481 609 l 258
 481 747 605 824 740 824 c 256
 751 824 763 823 774 822 c 258
 832 815 l 257
 854 1075 l 257
 799 1086 746 1088 718 1088 c 256
 626 1088 514 1038 453 909 c 257
 435 1082 l 257
 121 1082 l 257
 121 0 l 257
EndSplineSet
EndChar

StartChar: radical
Encoding: 474 8730 330
Width: 1379
VWidth: 0
GlyphClass: 2
Flags: W
PickledData: "(dp1
S'org.pippin.gimp.org.kernagic'
p2
(dp3
S'lstem'
p4
I0
sS'rstem'
p5
I0
ssS'com.typemytype.robofont.layerData'
p6
(dp7
S'b'
(dp8
S'name'
p9
S'radical'
p10
sS'lib'
p11
(dp12
sS'unicodes'
p13
(tsS'width'
p14
I1136
sS'contours'
p15
(tsS'components'
p16
(tsS'anchors'
p17
(tsssS'org.robofab.postScriptHintData'
p18
(dp19
s."
LayerCount: 2
Fore
SplineSet
1050 1573 m 257
 1039 1527 640 226 629 180 c 257
 544 445 451 703 362 964 c 257
 15 861 l 257
 45 736 l 257
 187 777 l 257
 534 -168 l 257
 830 -168 l 257
 1348 1573 l 257
 1050 1573 l 257
EndSplineSet
EndChar

StartChar: registered
Encoding: 109 174 333
Width: 1902
VWidth: 0
GlyphClass: 2
Flags: W
PickledData: "(dp1
S'org.pippin.gimp.org.kernagic'
p2
(dp3
S'lstem'
p4
I0
sS'rstem'
p5
I0
ssS'com.typemytype.robofont.layerData'
p6
(dp7
sS'org.robofab.postScriptHintData'
p8
(dp9
s."
LayerCount: 2
Fore
SplineSet
902 -55 m 256
 1334 -55 1686 286 1686 729 c 256
 1686 1170 1334 1511 902 1511 c 256
 469 1511 118 1170 118 729 c 256
 118 286 469 -55 902 -55 c 256
902 103 m 256
 565 103 291 377 291 729 c 256
 291 1080 565 1353 902 1353 c 256
 1239 1353 1513 1080 1513 729 c 256
 1513 377 1239 103 902 103 c 256
774 823 m 257
 774 1055 l 257
 850 1055 l 257
 899 1055 l 258
 1018 1055 1064 1049 1064 938 c 256
 1064 841 998 823 858 823 c 258
 774 823 l 257
602 322 m 257
 775 322 l 257
 775 707 l 257
 852 707 l 257
 853 706 1081 322 1081 322 c 257
 1283 322 l 257
 1283 322 1036 716 1035 718 c 257
 1187 758 1236 825 1236 945 c 256
 1236 1151 1090 1187 883 1187 c 258
 602 1187 l 257
 602 322 l 257
EndSplineSet
EndChar

StartChar: ring
Encoding: 403 730 334
Width: 817
VWidth: 0
GlyphClass: 4
Flags: W
PickledData: "(dp1
S'org.robofab.postScriptHintData'
p2
(dp3
sS'com.typemytype.robofont.layerData'
p4
(dp5
s."
AnchorPoint: "top" 383 1081 mark 0
LayerCount: 2
Fore
SplineSet
385 1192 m 256
 528 1192 615 1298 615 1414 c 256
 615 1529 531 1634 385 1634 c 256
 242 1634 158 1531 158 1414 c 256
 158 1298 243 1192 385 1192 c 256
385 1307 m 256
 322 1307 295 1355 295 1413 c 256
 295 1465 326 1519 385 1519 c 256
 446 1519 479 1465 479 1413 c 256
 479 1357 446 1307 385 1307 c 256
EndSplineSet
EndChar

StartChar: s
Encoding: 83 115 335
Width: 1011
VWidth: 0
GlyphClass: 2
Flags: HW
PickledData: "(dp1
S'org.pippin.gimp.org.kernagic'
p2
(dp3
S'lstem'
p4
I168
sS'rstem'
p5
I620
ssS'com.fontlab.hintData'
p6
(dp7
S'vhints'
p8
((dp9
S'position'
p10
I142
sS'width'
p11
I107
s(dp12
g10
I738
sg11
I104
stp13
sS'hhints'
p14
((dp15
g10
I-19
sg11
I92
s(dp16
g10
I982
sg11
I92
stp17
ssS'com.typemytype.robofont.guides'
p18
((dp19
S'y'
I381
sS'x'
I77
sS'magnetic'
p20
I5
sS'angle'
p21
F90
sS'isGlobal'
p22
I00
stp23
sS'com.typemytype.robofont.layerData'
p24
(dp25
sS'org.robofab.postScriptHintData'
p26
(dp27
s."
HStem: -19 92 982 92
VStem: 142 107 738 104
AnchorPoint: "top" 484 1081 basechar 0
LayerCount: 2
Fore
SplineSet
517 1102 m 256
 259 1102 95 979 95 780 c 256
 95 619 186 528 388 451 c 258
 497 411 l 258
 605 371 629 340 629 303 c 256
 629 255 602 213 527 213 c 256
 449 213 340 231 249 346 c 257
 219 346 l 257
 55 193 l 257
 169 46 326 -20 545 -20 c 256
 769 -20 970 96 970 313 c 256
 970 446 939 536 715 633 c 258
 566 698 l 258
 487 732 471 760 471 790 c 256
 471 838 513 864 573 864 c 256
 637 863 725 836 784 763 c 257
 798 763 l 257
 953 906 l 257
 866 1052 699 1102 517 1102 c 256
EndSplineSet
EndChar

StartChar: section
Encoding: 102 167 341
Width: 1023
VWidth: 0
GlyphClass: 2
Flags: W
PickledData: "(dp1
S'org.pippin.gimp.org.kernagic'
p2
(dp3
S'lstem'
p4
I0
sS'rstem'
p5
I0
ssS'com.typemytype.robofont.layerData'
p6
(dp7
S'b'
(dp8
S'name'
p9
S'section'
p10
sS'lib'
p11
(dp12
sS'unicodes'
p13
(tsS'width'
p14
I1079
sS'contours'
p15
(tsS'components'
p16
(tsS'anchors'
p17
(tsssS'org.robofab.postScriptHintData'
p18
(dp19
s."
LayerCount: 2
Fore
SplineSet
652 646 m 256
 649 647 587 676 575 680 c 256
 422 751 380 771 380 818 c 256
 380 856 407 887 427 896 c 256
 428 896 517 861 576 832 c 256
 659 791 686 751 686 713 c 256
 686 687 672 664 652 646 c 256
496 -21 m 256
 726 -21 889 79 889 352 c 256
 889 436 854 513 779 574 c 257
 845 630 899 698 899 808 c 256
 899 921 844 1002 675 1076 c 256
 449 1173 436 1199 436 1247 c 256
 436 1301 489 1323 566 1323 c 256
 648 1323 747 1297 812 1261 c 257
 873 1444 l 257
 768 1514 638 1548 542 1548 c 256
 371 1548 150 1486 150 1226 c 256
 150 1114 204 1035 310 963 c 257
 230 902 163 825 163 735 c 256
 163 604 255 543 426 468 c 256
 588 398 621 362 621 314 c 256
 621 244 573 207 491 207 c 256
 379 207 233 264 171 302 c 257
 171 65 l 257
 265 15 393 -21 496 -21 c 256
EndSplineSet
EndChar

StartChar: semicolon
Encoding: 27 59 342
Width: 764
VWidth: 0
GlyphClass: 2
Flags: W
PickledData: "(dp1
S'org.pippin.gimp.org.kernagic'
p2
(dp3
S'lstem'
p4
I0
sS'rstem'
p5
I0
ssS'com.typemytype.robofont.layerData'
p6
(dp7
sS'org.robofab.postScriptHintData'
p8
(dp9
s."
LayerCount: 2
Fore
SplineSet
384 787 m 256
 480 787 557 840 557 948 c 256
 557 1060 480 1116 384 1116 c 256
 290 1116 212 1060 212 948 c 256
 212 838 292 787 384 787 c 256
203 -350 m 257
 413 -350 l 257
 537 104 l 257
 537 281 l 257
 240 281 l 257
 240 218 203 -350 203 -350 c 257
EndSplineSet
EndChar

StartChar: seven
Encoding: 23 55 343
Width: 1378
VWidth: 0
GlyphClass: 2
Flags: W
PickledData: "(dp1
S'org.pippin.gimp.org.kernagic'
p2
(dp3
S'lstem'
p4
I0
sS'rstem'
p5
I0
ssS'com.typemytype.robofont.layerData'
p6
(dp7
sS'org.robofab.postScriptHintData'
p8
(dp9
s."
LayerCount: 2
Fore
SplineSet
320 0 m 257
 714 0 l 257
 1207 1190 l 257
 1201 1456 l 257
 185 1456 l 257
 194 1196 l 257
 813 1196 l 257
 320 0 l 257
EndSplineSet
EndChar

StartChar: six
Encoding: 22 54 344
Width: 1378
VWidth: 0
GlyphClass: 2
Flags: W
PickledData: "(dp1
S'org.pippin.gimp.org.kernagic'
p2
(dp3
S'lstem'
p4
I0
sS'rstem'
p5
I0
ssS'com.typemytype.robofont.layerData'
p6
(dp7
sS'org.robofab.postScriptHintData'
p8
(dp9
s."
LayerCount: 2
Fore
SplineSet
686 229 m 256
 568 229 494 319 494 458 c 256
 494 610 574 699 687 699 c 256
 805 699 878 606 878 459 c 256
 878 320 805 229 686 229 c 256
686 -20 m 256
 1035 -20 1243 171 1243 448 c 256
 1243 766 1010 898 802 898 c 256
 740 898 683 881 637 861 c 257
 790 1042 929 1236 1074 1425 c 257
 1074 1456 l 257
 674 1456 l 257
 284 893 l 258
 192 760 130 641 130 467 c 256
 130 183 333 -20 686 -20 c 256
EndSplineSet
EndChar

StartChar: slash
Encoding: 15 47 345
Width: 1021
VWidth: 0
GlyphClass: 2
Flags: W
PickledData: "(dp1
S'org.pippin.gimp.org.kernagic'
p2
(dp3
S'lstem'
p4
I0
sS'rstem'
p5
I0
ssS'com.typemytype.robofont.layerData'
p6
(dp7
S'b'
(dp8
S'name'
p9
S'slash'
p10
sS'lib'
p11
(dp12
sS'unicodes'
p13
(tsS'width'
p14
I965
sS'contours'
p15
(tsS'components'
p16
(tsS'anchors'
p17
(tsssS'org.robofab.postScriptHintData'
p18
(dp19
s."
LayerCount: 2
Fore
SplineSet
58 -183 m 257
 274 -183 l 257
 927 1560 l 257
 707 1560 l 257
 58 -183 l 257
EndSplineSet
EndChar

StartChar: slashbar
Encoding: 65543 -1 346
Width: 315
VWidth: 0
GlyphClass: 4
Flags: W
PickledData: "(dp1
S'org.pippin.gimp.org.kernagic'
p2
(dp3
S'lstem'
p4
I0
sS'rstem'
p5
I0
ssS'com.typemytype.robofont.layerData'
p6
(dp7
S'b'
(dp8
S'name'
p9
S'slashbar'
p10
sS'lib'
p11
(dp12
sS'unicodes'
p13
(tsS'width'
p14
I908
sS'contours'
p15
(tsS'components'
p16
(tsS'anchors'
p17
(tsssS'org.robofab.postScriptHintData'
p18
(dp19
s."
LayerCount: 2
Fore
SplineSet
140 446 m 257
 818 673 l 257
 818 917 l 257
 140 689 l 257
 140 446 l 257
EndSplineSet
EndChar

StartChar: sterling
Encoding: 98 163 348
Width: 1220
VWidth: 0
GlyphClass: 2
Flags: W
PickledData: "(dp1
S'org.pippin.gimp.org.kernagic'
p2
(dp3
S'lstem'
p4
I0
sS'rstem'
p5
I0
ssS'com.typemytype.robofont.layerData'
p6
(dp7
S'b'
(dp8
S'name'
p9
S'sterling'
p10
sS'lib'
p11
(dp12
sS'unicodes'
p13
(tsS'width'
p14
I1136
sS'contours'
p15
((dp16
S'points'
p17
((dp18
S'segmentType'
p19
S'line'
p20
sS'x'
I20
sS'smooth'
p21
I00
sS'y'
I0
s(dp22
g19
S'line'
p23
sS'x'
I8
sg21
I00
sS'y'
I115
s(dp24
g19
S'line'
p25
sS'x'
I180
sg21
I00
sS'y'
I132
s(dp26
g19
S'line'
p27
sS'x'
I180
sg21
I00
sS'y'
I683
s(dp28
g19
S'line'
p29
sS'x'
I8
sg21
I00
sS'y'
I683
s(dp30
g19
S'line'
p31
sS'x'
I8
sg21
I00
sS'y'
I806
s(dp32
g19
S'line'
p33
sS'x'
I180
sg21
I00
sS'y'
I806
s(dp34
g19
S'line'
p35
sS'x'
I180
sg21
I01
sS'y'
I920
s(dp36
S'y'
I1183
sS'x'
I180
sg21
I00
s(dp37
S'y'
I1476
sS'x'
I245
sg21
I00
s(dp38
g19
S'curve'
p39
sS'x'
I598
sg21
I01
sS'y'
I1476
s(dp40
S'y'
I1476
sS'x'
I742
sg21
I00
s(dp41
S'y'
I1421
sS'x'
I854
sg21
I00
s(dp42
g19
S'curve'
p43
sS'x'
I939
sg21
I00
sS'y'
I1347
s(dp44
g19
S'line'
p45
sS'x'
I871
sg21
I00
sS'y'
I1229
s(dp46
S'y'
I1297
sS'x'
I785
sg21
I00
s(dp47
S'y'
I1334
sS'x'
I700
sg21
I00
s(dp48
g19
S'curve'
p49
sS'x'
I598
sg21
I01
sS'y'
I1334
s(dp50
S'y'
I1334
sS'x'
I397
sg21
I00
s(dp51
S'y'
I1179
sS'x'
I356
sg21
I00
s(dp52
g19
S'curve'
p53
sS'x'
I356
sg21
I01
sS'y'
I949
s(dp54
g19
S'line'
p55
sS'x'
I356
sg21
I00
sS'y'
I806
s(dp56
g19
S'line'
p57
sS'x'
I739
sg21
I00
sS'y'
I806
s(dp58
g19
S'line'
p59
sS'x'
I739
sg21
I00
sS'y'
I683
s(dp60
g19
S'line'
p61
sS'x'
I356
sg21
I00
sS'y'
I683
s(dp62
g19
S'line'
p63
sS'x'
I356
sg21
I00
sS'y'
I134
s(dp64
g19
S'line'
p65
sS'x'
I953
sg21
I00
sS'y'
I134
s(dp66
g19
S'line'
p67
sS'x'
I940
sg21
I00
sS'y'
I0
stp68
stp69
sS'components'
p70
(tsS'anchors'
p71
(tsssS'org.robofab.postScriptHintData'
p72
(dp73
s."
LayerCount: 2
Fore
SplineSet
1039 1212 m 257
 1153 1426 l 257
 1119 1453 968 1553 743 1553 c 256
 397 1553 272 1334 272 981 c 258
 272 871 l 257
 85 871 l 257
 85 666 l 257
 272 666 l 257
 272 249 l 257
 95 227 l 257
 105 0 l 257
 1130 0 l 257
 1134 251 l 257
 634 251 l 257
 634 666 l 257
 941 666 l 257
 941 871 l 257
 634 871 l 257
 634 1041 l 258
 634 1191 702 1269 819 1269 c 258
 821 1269 l 258
 881 1269 946 1248 1018 1212 c 257
 1039 1212 l 257
EndSplineSet
EndChar

StartChar: summation
Encoding: 470 8721 349
Width: 1199
VWidth: 0
GlyphClass: 2
Flags: W
PickledData: "(dp1
S'org.pippin.gimp.org.kernagic'
p2
(dp3
S'lstem'
p4
I0
sS'rstem'
p5
I0
ssS'com.typemytype.robofont.layerData'
p6
(dp7
S'b'
(dp8
S'name'
p9
S'summation'
p10
sS'lib'
p11
(dp12
sS'unicodes'
p13
(tsS'width'
p14
I1050
sS'contours'
p15
(tsS'components'
p16
(tsS'anchors'
p17
(tsssS'org.robofab.postScriptHintData'
p18
(dp19
s."
LayerCount: 2
Fore
SplineSet
72 1456 m 257
 72 1230 l 257
 563 577 l 257
 67 -52 l 257
 67 -274 l 257
 1138 -274 l 257
 1138 -3 l 257
 435 -3 l 257
 928 594 l 257
 501 1190 l 257
 1105 1190 l 257
 1105 1456 l 257
 72 1456 l 257
EndSplineSet
EndChar

StartChar: t
Encoding: 84 116 350
Width: 896
VWidth: 0
GlyphClass: 2
Flags: W
PickledData: "(dp1
S'org.pippin.gimp.org.kernagic'
p2
(dp3
S'lstem'
p4
I189
sS'rstem'
p5
I480
ssS'com.typemytype.robofont.layerData'
p6
(dp7
sS'com.fontlab.hintData'
p8
(dp9
S'vhints'
p10
((dp11
S'position'
p12
I244
sS'width'
p13
I122
s(dp14
g12
I286
sg13
I80
stp15
sS'hhints'
p16
((dp17
g12
I-11
sg13
I83
stp18
ssS'org.robofab.postScriptHintData'
p19
(dp20
s."
HStem: -11 83
VStem: 244 122 286 80
AnchorPoint: "top" 428 1323 basechar 0
LayerCount: 2
Fore
SplineSet
637 -10 m 257
 851 -3 l 257
 861 229 l 257
 701 236 l 258
 580 241 549 290 549 409 c 258
 549 876 l 257
 837 876 l 257
 837 1082 l 257
 549 1082 l 257
 549 1420 l 257
 224 1394 l 257
 205 1085 l 257
 40 1065 l 257
 33 876 l 257
 195 876 l 257
 195 421 l 258
 195 139 247 -10 637 -10 c 257
EndSplineSet
EndChar

StartChar: thorn
Encoding: 189 254 355
Width: 1111
VWidth: 0
GlyphClass: 2
Flags: W
PickledData: "(dp1
S'org.pippin.gimp.org.kernagic'
p2
(dp3
S'lstem'
p4
I0
sS'rstem'
p5
I0
ssS'com.typemytype.robofont.layerData'
p6
(dp7
S'b'
(dp8
S'name'
p9
S'thorn'
p10
sS'lib'
p11
(dp12
sS'unicodes'
p13
(tsS'width'
p14
I1221
sS'contours'
p15
(tsS'components'
p16
(tsS'anchors'
p17
(tsssS'org.robofab.postScriptHintData'
p18
(dp19
s."
LayerCount: 2
Fore
SplineSet
187 578 m 257
 187 -426 l 257
 542 -426 l 257
 542 578 l 257
 187 578 l 257
EndSplineSet
Refer: 155 98 N 1 0 0 1 60 0 2
EndChar

StartChar: three
Encoding: 19 51 356
Width: 1225
VWidth: 0
GlyphClass: 2
Flags: W
PickledData: "(dp1
S'org.pippin.gimp.org.kernagic'
p2
(dp3
S'lstem'
p4
I0
sS'rstem'
p5
I0
ssS'com.typemytype.robofont.layerData'
p6
(dp7
sS'org.robofab.postScriptHintData'
p8
(dp9
s."
LayerCount: 2
Fore
SplineSet
557 -20 m 256
 822 -20 1113 94 1113 417 c 256
 1113 559 1033 725 775 754 c 257
 1026 795 1070 958 1070 1093 c 257
 1065 1365 842 1476 543 1476 c 256
 302 1476 151 1363 74 1264 c 257
 233 1088 l 257
 254 1082 l 257
 335 1165 420 1201 519 1204 c 256
 645 1204 707 1153 712 1041 c 257
 712 872 608 837 399 837 c 257
 292 835 l 257
 313 623 l 257
 403 623 l 258
 601 623 731 597 731 432 c 256
 731 322 670 248 528 248 c 256
 387 248 283 316 229 374 c 257
 203 374 l 257
 60 189 l 257
 89 144 260 -20 557 -20 c 256
EndSplineSet
EndChar

StartChar: threequarters
Encoding: 125 190 357
Width: 1718
VWidth: 0
GlyphClass: 3
Flags: W
PickledData: "(dp1
S'org.pippin.gimp.org.kernagic'
p2
(dp3
S'lstem'
p4
I0
sS'rstem'
p5
I0
ssS'com.typemytype.robofont.layerData'
p6
(dp7
sS'org.robofab.postScriptHintData'
p8
(dp9
s."
LayerCount: 2
Fore
SplineSet
1293 325 m 257
 1465 642 l 257
 1465 325 l 257
 1293 325 l 257
409 0 m 257
 635 0 l 257
 1630 1507 l 257
 1413 1507 l 257
 409 0 l 257
1464 0 m 257
 1640 0 l 257
 1640 177 l 257
 1734 177 l 257
 1752 325 l 257
 1639 325 l 257
 1639 876 l 257
 1454 876 l 257
 1100 332 l 257
 1100 177 l 257
 1464 177 l 257
 1464 0 l 257
375 575 m 256
 559 575 721 663 721 850 c 256
 721 945 668 1038 565 1058 c 257
 670 1078 701 1166 703 1244 c 256
 703 1410 568 1473 416 1473 c 256
 307 1473 191 1442 104 1389 c 257
 163 1264 l 257
 235 1304 316 1325 381 1325 c 256
 463 1325 525 1294 525 1221 c 256
 525 1162 510 1126 377 1126 c 258
 256 1126 l 257
 256 980 l 257
 375 981 l 257
 382 981 l 258
 501 981 546 931 546 857 c 256
 546 765 463 725 368 725 c 256
 293 725 212 751 156 793 c 257
 94 646 l 257
 179 599 280 575 375 575 c 256
EndSplineSet
Ligature2: "fracDiagonalFractionslookup11 subtable" three slash four
EndChar

StartChar: tilde
Encoding: 405 732 358
Width: 971
VWidth: 0
GlyphClass: 4
Flags: W
PickledData: "(dp1
S'org.robofab.postScriptHintData'
p2
(dp3
sS'com.typemytype.robofont.layerData'
p4
(dp5
sS'com.fontlab.hintData'
p6
(dp7
S'vhints'
p8
((dp9
S'position'
p10
I169
sS'width'
p11
I63
s(dp12
g10
I657
sg11
I67
stp13
sS'hhints'
p14
((dp15
g10
I1301
sg11
I88
s(dp16
g10
I1400
sg11
I79
stp17
ss."
HStem: 1301 88 1400 79
VStem: 169 63 657 67
AnchorPoint: "top" 485 1081 mark 0
LayerCount: 2
Fore
SplineSet
148 1255 m 257
 290 1255 l 257
 307 1328 330 1354 365 1354 c 256
 432 1354 530 1255 643 1255 c 256
 798 1255 843 1411 843 1524 c 257
 701 1524 l 257
 685 1463 666 1443 639 1443 c 256
 583 1443 498 1525 359 1525 c 256
 194 1525 148 1377 148 1255 c 257
EndSplineSet
EndChar

StartChar: trademark
Encoding: 463 8482 359
Width: 2050
VWidth: 0
GlyphClass: 2
Flags: W
PickledData: "(dp1
S'org.robofab.postScriptHintData'
p2
(dp3
sS'com.typemytype.robofont.layerData'
p4
(dp5
S'b'
(dp6
S'name'
p7
S'trademark'
p8
sS'lib'
p9
(dp10
sS'unicodes'
p11
(tsS'width'
p12
I2216
sS'contours'
p13
(tsS'components'
p14
(tsS'anchors'
p15
(tsss."
LayerCount: 2
Fore
SplineSet
341 521 m 257
 549 521 l 257
 549 1296 l 257
 804 1296 l 257
 804 1456 l 257
 86 1456 l 257
 86 1296 l 257
 341 1296 l 257
 341 521 l 257
906 521 m 257
 1102 521 l 257
 1121 1088 l 257
 1359 598 l 257
 1462 598 l 257
 1701 1087 l 257
 1720 521 l 257
 1915 521 l 257
 1895 1456 l 257
 1687 1456 l 257
 1412 879 l 257
 1134 1456 l 257
 926 1456 l 257
 906 521 l 257
EndSplineSet
EndChar

StartChar: two
Encoding: 18 50 360
Width: 1378
VWidth: 0
GlyphClass: 2
Flags: W
PickledData: "(dp1
S'org.pippin.gimp.org.kernagic'
p2
(dp3
S'lstem'
p4
I0
sS'rstem'
p5
I0
ssS'com.typemytype.robofont.layerData'
p6
(dp7
sS'org.robofab.postScriptHintData'
p8
(dp9
s."
LayerCount: 2
Fore
SplineSet
309 1027 m 257
 397 1133 536 1208 669 1208 c 256
 781 1208 859 1133 859 1021 c 256
 859 937 817 863 726 774 c 258
 184 241 l 257
 241 0 l 257
 1179 0 l 257
 1189 249 l 257
 608 249 l 257
 928 551 l 258
 1129 740 1199 878 1199 1014 c 256
 1199 1236 1073 1476 672 1476 c 256
 415 1476 225 1336 115 1204 c 257
 283 1027 l 257
 309 1027 l 257
EndSplineSet
EndChar

StartChar: u
Encoding: 85 117 361
Width: 1263
VWidth: 0
GlyphClass: 2
Flags: W
PickledData: "(dp1
S'org.pippin.gimp.org.kernagic'
p2
(dp3
S'lstem'
p4
I0
sS'rstem'
p5
I0
ssS'com.typemytype.robofont.layerData'
p6
(dp7
sS'com.fontlab.hintData'
p8
(dp9
S'vhints'
p10
((dp11
S'position'
p12
I162
sS'width'
p13
I166
s(dp14
g12
I862
sg13
I166
stp15
sS'hhints'
p16
((dp17
g12
I-21
sg13
I126
stp18
ssS'org.robofab.postScriptHintData'
p19
(dp20
s."
HStem: -21 126
VStem: 162 166 862 166
AnchorPoint: "top" 633 1082 basechar 0
LayerCount: 2
Fore
SplineSet
776 296 m 257
 744 255 694 209 614 209 c 256
 522 209 477 264 477 454 c 258
 477 1082 l 257
 117 1082 l 257
 117 409 l 258
 117 142 245 -20 488 -20 c 256
 659 -20 755 64 809 160 c 257
 826 0 l 257
 1136 0 l 257
 1136 1082 l 257
 776 1082 l 257
 776 296 l 257
EndSplineSet
EndChar

StartChar: underscore
Encoding: 63 95 369
Width: 1001
VWidth: 0
GlyphClass: 2
Flags: W
PickledData: "(dp1
S'org.pippin.gimp.org.kernagic'
p2
(dp3
S'lstem'
p4
I0
sS'rstem'
p5
I0
ssS'com.typemytype.robofont.layerData'
p6
(dp7
sS'org.robofab.postScriptHintData'
p8
(dp9
s."
LayerCount: 2
Fore
SplineSet
0 -288 m 257
 1001 -288 l 257
 1001 -89 l 257
 0 -89 l 257
 0 -288 l 257
EndSplineSet
EndChar

StartChar: uni00AD
Encoding: 108 173 372
Width: 1060
VWidth: 0
GlyphClass: 2
Flags: W
PickledData: "(dp1
S'org.robofab.postScriptHintData'
p2
(dp3
s."
LayerCount: 2
Fore
SplineSet
200 89 m 257
 849 89 l 257
 849 323 l 257
 200 323 l 257
 200 89 l 257
EndSplineSet
EndChar

StartChar: uni00B2
Encoding: 113 178 373
Width: 846
VWidth: 0
GlyphClass: 2
Flags: W
PickledData: "(dp1
S'org.robofab.postScriptHintData'
p2
(dp3
sS'com.typemytype.robofont.layerData'
p4
(dp5
s."
LayerCount: 2
Fore
SplineSet
157 593 m 257
 715 593 l 257
 734 753 l 257
 444 753 l 257
 575 870 516 798 618 899 c 256
 685 969 734 1080 734 1191 c 256
 734 1374 592 1478 456 1478 c 256
 329 1478 229 1438 165 1348 c 257
 246 1215 l 257
 288 1274 362 1305 433 1305 c 256
 484 1305 544 1260 544 1186 c 256
 544 1152 483 1071 468 1042 c 257
 265 817 250 848 157 751 c 257
 157 593 l 257
EndSplineSet
EndChar

StartChar: uni00B3
Encoding: 114 179 374
Width: 883
VWidth: 0
GlyphClass: 2
Flags: W
PickledData: "(dp1
S'org.robofab.postScriptHintData'
p2
(dp3
sS'com.typemytype.robofont.layerData'
p4
(dp5
s."
LayerCount: 2
Fore
SplineSet
431 578 m 256
 615 578 777 666 777 851 c 256
 777 948 723 1041 623 1060 c 257
 727 1080 758 1165 760 1245 c 256
 760 1412 626 1475 473 1475 c 256
 361 1475 244 1443 157 1390 c 257
 216 1266 l 257
 287 1306 368 1328 436 1328 c 256
 520 1328 584 1297 584 1223 c 256
 584 1164 569 1127 434 1127 c 258
 311 1127 l 257
 311 983 l 257
 432 985 l 257
 439 985 l 258
 558 985 604 934 604 860 c 256
 604 767 519 727 423 727 c 256
 346 727 263 754 209 796 c 257
 146 650 l 257
 231 603 333 578 431 578 c 256
EndSplineSet
EndChar

StartChar: uni00B9
Encoding: 120 185 376
Width: 857
VWidth: 0
GlyphClass: 2
Flags: W
PickledData: "(dp1
S'org.robofab.postScriptHintData'
p2
(dp3
sS'com.typemytype.robofont.layerData'
p4
(dp5
s."
LayerCount: 2
Fore
SplineSet
236 554 m 257
 715 554 l 257
 715 727 l 257
 578 727 l 257
 578 1459 l 257
 419 1459 l 257
 393 1446 267 1370 219 1343 c 257
 219 1170 l 257
 219 1170 331 1228 368 1246 c 257
 368 727 l 257
 236 727 l 257
 236 554 l 257
EndSplineSet
EndChar

StartChar: uni02C9
Encoding: 400 713 445
Width: 600
VWidth: 0
GlyphClass: 4
Flags: W
PickledData: "(dp1
S'org.robofab.postScriptHintData'
p2
(dp3
s."
AnchorPoint: "top" 291 1081 mark 0
LayerCount: 2
Fore
SplineSet
-67 1350 m 257
 650 1350 l 257
 650 1532 l 257
 -67 1532 l 257
 -67 1350 l 257
EndSplineSet
EndChar

StartChar: uni0307
Encoding: 407 775 446
Width: 635
VWidth: 0
GlyphClass: 4
Flags: W
PickledData: "(dp1
S'org.robofab.postScriptHintData'
p2
(dp3
sS'com.typemytype.robofont.layerData'
p4
(dp5
s."
LayerCount: 2
Fore
SplineSet
511 1456 m 256
 511 1562 438 1628 320 1628 c 256
 203 1628 129 1562 129 1456 c 256
 129 1345 203 1276 320 1276 c 256
 438 1276 511 1345 511 1456 c 256
EndSplineSet
EndChar

StartChar: uni2074
Encoding: 460 8308 465
Width: 687
VWidth: 0
GlyphClass: 2
Flags: W
PickledData: "(dp1
S'org.robofab.postScriptHintData'
p2
(dp3
sS'com.typemytype.robofont.layerData'
p4
(dp5
s."
LayerCount: 2
Fore
SplineSet
177 908 m 257
 347 1226 l 257
 347 908 l 257
 177 908 l 257
346 582 m 257
 520 582 l 257
 520 761 l 257
 615 761 l 257
 633 908 l 257
 520 908 l 257
 520 1459 l 257
 336 1459 l 257
 -15 916 l 257
 -15 761 l 257
 346 761 l 257
 346 582 l 257
EndSplineSet
EndChar

StartChar: afii61289
Encoding: 462 8467 466
Width: 1361
VWidth: 0
Flags: W
PickledData: "(dp1
S'org.robofab.postScriptHintData'
p2
(dp3
s."
LayerCount: 2
Fore
SplineSet
773 911 m 257
 867 1298 l 258
 899 1432 976 1485 1044 1485 c 256
 1114 1485 1175 1430 1175 1346 c 256
 1175 1254 1096 1128 931 1019 c 256
 928 1019 833 954 773 911 c 257
288 305 m 256
 288 83 415 -20 601 -20 c 256
 876 -20 1055 98 1055 98 c 257
 1025 302 l 257
 923 262 826 230 751 230 c 256
 682 230 640 259 640 335 c 256
 640 358 644 385 652 417 c 258
 712 662 l 257
 998 865 l 258
 1253 1046 1356 1133 1356 1343 c 256
 1356 1579 1163 1708 964 1708 c 256
 794 1708 621 1612 562 1396 c 258
 365 670 l 257
 66 452 l 257
 125 334 l 257
 304 457 l 257
 292 401 288 351 288 305 c 256
EndSplineSet
EndChar

StartChar: Delta
Encoding: 468 8710 468
Width: 1332
VWidth: 0
Flags: W
PickledData: "(dp1
S'org.pippin.gimp.org.kernagic'
p2
(dp3
S'lstem'
p4
I0
sS'rstem'
p5
I0
ssS'com.typemytype.robofont.layerData'
p6
(dp7
S'b'
(dp8
S'name'
p9
S'uni2206'
p10
sS'lib'
p11
(dp12
sS'unicodes'
p13
(tsS'width'
p14
I1278
sS'contours'
p15
(tsS'components'
p16
(tsS'anchors'
p17
(tsssS'org.robofab.postScriptHintData'
p18
(dp19
s."
LayerCount: 2
Fore
SplineSet
700 1231 m 257
 1062 179 l 257
 277 179 l 257
 631 1231 l 257
 666 1354 l 257
 700 1231 l 257
574 1589 m 257
 72 89 l 257
 72 0 l 257
 1266 0 l 257
 1266 89 l 257
 766 1589 l 257
 574 1589 l 257
EndSplineSet
EndChar

StartChar: v
Encoding: 86 118 479
Width: 1101
VWidth: 0
GlyphClass: 2
Flags: W
PickledData: "(dp1
S'org.pippin.gimp.org.kernagic'
p2
(dp3
S'lstem'
p4
I0
sS'rstem'
p5
I0
ssS'com.typemytype.robofont.guides'
p6
((dp7
S'y'
I552
sS'x'
I438
sS'magnetic'
p8
I5
sS'angle'
p9
I0
sS'isGlobal'
p10
I00
stp11
sS'com.typemytype.robofont.layerData'
p12
(dp13
sS'org.robofab.postScriptHintData'
p14
(dp15
s."
LayerCount: 2
Fore
SplineSet
377 0 m 257
 734 0 l 257
 1096 1082 l 257
 736 1082 l 257
 619 603 l 257
 571 382 l 257
 508 618 440 849 374 1082 c 257
 6 1082 l 257
 377 0 l 257
EndSplineSet
EndChar

StartChar: w
Encoding: 87 119 480
Width: 1535
VWidth: 0
GlyphClass: 2
Flags: W
PickledData: "(dp1
S'org.pippin.gimp.org.kernagic'
p2
(dp3
S'lstem'
p4
I0
sS'rstem'
p5
I0
ssS'com.typemytype.robofont.layerData'
p6
(dp7
sS'org.robofab.postScriptHintData'
p8
(dp9
s."
AnchorPoint: "top" 784 1082 basechar 0
LayerCount: 2
Fore
SplineSet
782 727 m 257
 930 -6 l 257
 1265 -6 l 257
 1529 1082 l 257
 1225 1082 l 257
 1100 349 l 257
 944 1082 l 257
 625 1082 l 257
 443 334 l 257
 333 1082 l 257
 2 1082 l 257
 259 -6 l 257
 578 -6 l 257
 782 727 l 257
EndSplineSet
EndChar

StartChar: x
Encoding: 88 120 485
Width: 1098
VWidth: 0
GlyphClass: 2
Flags: W
PickledData: "(dp1
S'org.pippin.gimp.org.kernagic'
p2
(dp3
S'lstem'
p4
I0
sS'rstem'
p5
I0
ssS'com.typemytype.robofont.layerData'
p6
(dp7
sS'com.fontlab.hintData'
p8
(dp9
S'hhints'
p10
((dp11
S'position'
p12
I0
sS'width'
p13
I22
s(dp14
g12
I1034
sg13
I21
stp15
ssS'org.robofab.postScriptHintData'
p16
(dp17
s."
HStem: 0 22 1034 21
LayerCount: 2
Fore
SplineSet
744 545 m 257
 1084 1082 l 257
 752 1082 l 257
 572 806 l 257
 390 1082 l 257
 14 1082 l 257
 367 543 l 257
 -4 -6 l 257
 333 -6 l 257
 537 283 l 257
 726 -6 l 257
 1107 -6 l 257
 744 545 l 257
EndSplineSet
EndChar

StartChar: y
Encoding: 89 121 486
Width: 1136
VWidth: 0
GlyphClass: 2
Flags: W
PickledData: "(dp1
S'org.pippin.gimp.org.kernagic'
p2
(dp3
S'lstem'
p4
I0
sS'rstem'
p5
I0
ssS'com.typemytype.robofont.layerData'
p6
(dp7
sS'org.robofab.postScriptHintData'
p8
(dp9
s."
AnchorPoint: "top" 552 1082 basechar 0
LayerCount: 2
Fore
SplineSet
1151 1082 m 257
 819 1082 l 257
 576 482 l 257
 320 1082 l 257
 -29 1082 l 257
 400 152 l 257
 181 -341 l 257
 466 -453 l 257
 1151 1082 l 257
EndSplineSet
EndChar

StartChar: yen
Encoding: 100 165 490
Width: 1348
VWidth: 0
GlyphClass: 2
Flags: W
PickledData: "(dp1
S'org.pippin.gimp.org.kernagic'
p2
(dp3
S'lstem'
p4
I0
sS'rstem'
p5
I0
ssS'com.typemytype.robofont.layerData'
p6
(dp7
S'b'
(dp8
S'name'
p9
S'yen'
p10
sS'lib'
p11
(dp12
sS'unicodes'
p13
(tsS'width'
p14
I1366
sS'contours'
p15
(tsS'components'
p16
(tsS'anchors'
p17
(tsssS'org.robofab.postScriptHintData'
p18
(dp19
s."
LayerCount: 2
Fore
SplineSet
184 534 m 257
 1136 534 l 257
 1136 675 l 257
 184 675 l 257
 184 534 l 257
184 239 m 257
 1136 239 l 257
 1136 381 l 257
 184 381 l 257
 184 239 l 257
EndSplineSet
Refer: 124 89 N 1 0 0 1 0 0 2
EndChar

StartChar: z
Encoding: 90 122 492
Width: 957
VWidth: 0
GlyphClass: 2
Flags: W
PickledData: "(dp1
S'org.pippin.gimp.org.kernagic'
p2
(dp3
S'lstem'
p4
I0
sS'rstem'
p5
I0
ssS'com.typemytype.robofont.layerData'
p6
(dp7
sS'org.robofab.postScriptHintData'
p8
(dp9
s."
AnchorPoint: "top" 476 1082 basechar 0
LayerCount: 2
Fore
SplineSet
71 1082 m 257
 65 870 l 257
 512 870 l 257
 66 171 l 257
 66 0 l 257
 920 0 l 257
 927 220 l 257
 471 220 l 257
 900 889 l 257
 900 1082 l 257
 71 1082 l 257
EndSplineSet
EndChar

StartChar: zero
Encoding: 16 48 496
Width: 1378
VWidth: 0
GlyphClass: 2
Flags: W
PickledData: "(dp1
S'org.pippin.gimp.org.kernagic'
p2
(dp3
S'lstem'
p4
I0
sS'rstem'
p5
I0
ssS'com.typemytype.robofont.layerData'
p6
(dp7
S'b'
(dp8
S'name'
p9
S'zero'
p10
sS'lib'
p11
(dp12
sS'unicodes'
p13
(tsS'width'
p14
I1248
sS'contours'
p15
(tsS'components'
p16
(tsS'anchors'
p17
(tsssS'org.robofab.postScriptHintData'
p18
(dp19
s."
LayerCount: 2
Fore
SplineSet
690 -20 m 256
 1066 -20 1297 269 1297 729 c 256
 1297 1187 1065 1476 690 1476 c 256
 314 1476 81 1187 81 729 c 256
 81 269 313 -20 690 -20 c 256
690 251 m 256
 560 251 479 431 479 729 c 256
 482 1022 564 1204 690 1204 c 256
 819 1204 899 1025 899 729 c 256
 899 431 819 251 690 251 c 256
EndSplineSet
EndChar

StartChar: Sigma
Encoding: 414 931 497
Width: 1199
VWidth: 0
GlyphClass: 2
Flags: HW
LayerCount: 2
Fore
SplineSet
72 1456 m 257
 72 1230 l 257
 563 577 l 257
 67 -52 l 257
 67 -274 l 257
 1138 -274 l 257
 1138 -3 l 257
 435 -3 l 257
 928 594 l 257
 501 1190 l 257
 1105 1190 l 257
 1105 1456 l 257
 72 1456 l 257
EndSplineSet
EndChar

StartChar: uni03BC
Encoding: 416 956 498
Width: 1244
VWidth: 0
GlyphClass: 2
Flags: HW
LayerCount: 2
Fore
SplineSet
776 296 m 1
 744 255 694 209 614 209 c 0
 522 209 477 264 477 454 c 2
 477 1082 l 1
 117 1082 l 1
 117 -328 l 1
 477 -328 l 1
 477 -19.8879361738 l 2
 480.640071727 -19.9625786861 484.306753607 -20 488 -20 c 0
 659 -20 755 64 809 160 c 1
 826 0 l 1
 1136 0 l 1
 1136 1082 l 1
 776 1082 l 1
 776 296 l 1
EndSplineSet
EndChar

StartChar: emptyset
Encoding: 467 8709 499
Width: 1678
VWidth: 0
GlyphClass: 2
Flags: HW
LayerCount: 2
Fore
SplineSet
82 733 m 0
 82 1166.80946597 442.209815076 1503 832 1503 c 0
 1004.35045892 1503 1170.57714551 1436.64052905 1301.24586005 1328.04368449 c 1
 1477.31911498 1526.00175077 l 1
 1561.72644822 1459.84465174 l 1
 1377.81237312 1254.59247954 l 1
 1502.33292724 1118.61178229 1582 936.912646963 1582 733 c 0
 1582 299.19053403 1221.79018492 -37 832 -37 c 0
 663.65585325 -37 500.761436846 26.9147562655 372.039708811 130.364524004 c 1
 179.247127373 -85.5230020853 l 1
 102.837527348 -16.2768020626 l 1
 295.927129296 200.949000129 l 1
 164.973700487 338.946971454 82 524.061830571 82 733 c 0
441.111982555 207.214092897 m 1
 554.498441307 117.634669994 690.831108418 67 832 67 c 0
 1166.18355854 67 1479 357.798552711 1479 733 c 0
 1479 906.120869845 1412.2075901 1060.43924838 1308.46052089 1177.50069952 c 1
 441.111982555 207.214092897 l 1
364.99056526 277.958566548 m 1
 1232.31455449 1251.19340595 l 1
 1118.11103474 1345.21012056 977.209135989 1399 832 1399 c 0
 497.816441459 1399 185 1108.20144729 185 733 c 0
 185 554.760063962 255.941876746 395.12530095 364.99056526 277.958566548 c 1
EndSplineSet
EndChar

StartChar: uni03A9
Encoding: 415 937 500
Width: 2048
VWidth: 0
GlyphClass: 2
Flags: HW
LayerCount: 2
Fore
SplineSet
83.4009155738 -45 m 1
 56.8624540354 162 l 1
 341.793401515 162 l 1
 183.513504927 310.670127654 78 520.520119917 78 773 c 0
 78 1208.55773029 397.273811835 1492 816 1492 c 0
 1253.19298456 1492 1531 1176.05400286 1531 770 c 0
 1531 509.804476169 1402.07369958 304.129170679 1255.11418516 162 c 1
 1541.27692569 162 l 1
 1518.27692569 -45 l 1
 927.407231443 -45 l 1
 925.780531834 133.936957021 l 1
 946.03849117 147.442263245 l 0
 1143.0385162 278.775613265 1285 490.402830473 1285 751 c 0
 1285 1039.24586122 1125.47114548 1274 810 1274 c 0
 521.419000983 1274 324 1071.56388217 324 756 c 0
 324 496.012858824 458.577093414 277.275808168 658.043902155 148.040711276 c 1
 678.77784227 134.641891485 l 1
 680.410950375 -45 l 1
 83.4009155738 -45 l 1
EndSplineSet
EndChar

StartChar: uni0358
Encoding: 412 856 501
Width: 635
VWidth: 0
GlyphClass: 4
Flags: HW
LayerCount: 2
Fore
SplineSet
511 1456 m 256
 511 1562 438 1628 320 1628 c 256
 203 1628 129 1562 129 1456 c 256
 129 1345 203 1276 320 1276 c 256
 438 1276 511 1345 511 1456 c 256
EndSplineSet
EndChar

StartChar: uni0259
Encoding: 397 601 502
Width: 1199
VWidth: 0
Flags: HW
HStem: -19 94 982 92
LayerCount: 2
Fore
SplineSet
749 458 m 261
 741 277 662 205 548 205 c 260
 440 205 384 280 384 458 c 261
 749 458 l 261
528 1102 m 260
 345 1102 182 1047 98 968 c 261
 175 785 l 261
 192 785 l 261
 276 838 377 874 488 874 c 260
 631 874 736 795 752 648 c 261
 97 648 l 261
 97 648 84 591 84 505 c 260
 93 198 222 -20 566 -20 c 260
 898 -20 1111 195 1111 540 c 260
 1111 886 884 1102 528 1102 c 260
EndSplineSet
EndChar
